<svg viewBox="0 0 100 100" fill-rule="evenodd" clip-rule="evenodd" stroke-linecap="round" stroke-miterlimit="2" class="icon"><path d="M5.393 0A5.392 5.392 0 000 5.391V94.61A5.392 5.392 0 005.393 100h89.214A5.392 5.392 0 00100 94.61V5.39a5.392 5.392 0 00-5.393-5.39H5.393zm0 4C4.623 4 4 4.623 4 5.391V94.61c0 .768.623 1.39 1.393 1.39h89.214c.77 0 1.393-.622 1.393-1.39V5.39c0-.768-.623-1.39-1.393-1.39H5.393z" fill="#6a737d"/><path d="M109.898 106c-.768 0-1.506.312-2.049.869a2.998 2.998 0 00-.849 2.097v38.068c0 .787.305 1.541.849 2.097a2.862 2.862 0 002.049.869h37.204c.768 0 1.506-.312 2.049-.869.544-.556.849-1.31.849-2.097v-38.068c0-.787-.305-1.541-.849-2.097a2.862 2.862 0 00-2.049-.869h-37.204z" fill="none" stroke="#6a737d" stroke-width="2.17" transform="matrix(1.86047 0 0 1.81818 -189.07 -182.727)"/><path d="M3 97l7-7m80 0l7 7m0-94l-7 7M3 3l7 7m62 72L29 39m44 24L28 18M10 52h22M10 72h42M39 22h51M62 42h28" fill="none" stroke="#6a737d" stroke-width="4" stroke-linejoin="round" stroke-miterlimit="3"/><path fill="none" d="M0 0h100v100H0z"/></svg>