<svg viewBox="0 0 100 100" fill-rule="evenodd" clip-rule="evenodd" stroke-linejoin="round" stroke-miterlimit="2" class="icon"><path d="M100 19.078C100 8.548 91.452 0 80.922 0H19.078C8.548 0 0 8.548 0 19.078v61.844C0 91.452 8.548 100 19.078 100h61.844C91.452 100 100 91.452 100 80.922V19.078zm-4 0v61.844C96 89.244 89.244 96 80.922 96H19.078C10.756 96 4 89.244 4 80.922V19.078C4 10.756 10.756 4 19.078 4h61.844C89.244 4 96 10.756 96 19.078z" fill="#6a737d"/><path d="M75 50c0-13.798-11.202-25-25-25S25 36.202 25 50s11.202 25 25 25 25-11.202 25-25zm-4 0c0 11.59-9.41 21-21 21s-21-9.41-21-21 9.41-21 21-21 21 9.41 21 21z" fill="#6a737d"/><g transform="translate(-74 -77)" fill="#6a737d"><circle cx="155" cy="95" r="5"/><path d="M155 90c2.76 0 5 2.24 5 5s-2.24 5-5 5-5-2.24-5-5 2.24-5 5-5zm0 4a1 1 0 110 2 1 1 0 010-2z"/></g></svg>