<svg viewBox="0 0 100 100" fill-rule="evenodd" clip-rule="evenodd" stroke-linejoin="round" stroke-miterlimit="2" class="icon"><path d="M25.793 0A6.797 6.797 0 0019 6.793v86.414A6.795 6.795 0 0025.793 100h48.414A6.797 6.797 0 0081 93.207V6.793A6.795 6.795 0 0074.207 0H25.793zm0 4h48.414A2.79 2.79 0 0177 6.793v86.414A2.793 2.793 0 0174.207 96H25.793A2.79 2.79 0 0123 93.207V6.793A2.793 2.793 0 0125.793 4z" fill="#6a737d"/><path d="M54.802 29V15.446c0-2.622 1.612-2.448 3.599-2.448H63h-1V17h-3v-4h-1v4h-3.198v1h14.396v11.554c0 2.622-1.612 2.448-3.599 2.448h-7.198c-1.866 0-3.403.154-3.582-2.002h2.63a.55.55 0 01.551.551V32h1v-1.449a.55.55 0 01.551-.551h1.938c.282 0 .511.229.511.511V32h1v-2.489a.511.511 0 00-.511-.511h-7.687zM65 22.391c0-.103.041-.203.115-.276a.388.388 0 01.276-.115h.218c.103 0 .203.041.276.115a.388.388 0 01.115.276v5.218a.388.388 0 01-.115.276.388.388 0 01-.276.115h-.218a.388.388 0 01-.276-.115.388.388 0 01-.115-.276v-5.218zm-7 0c0-.103.041-.203.115-.276a.388.388 0 01.276-.115h.218c.103 0 .203.041.276.115a.388.388 0 01.115.276v5.218a.388.388 0 01-.115.276.388.388 0 01-.276.115h-.218a.388.388 0 01-.276-.115.388.388 0 01-.115-.276v-5.218zm5-9.393h2.599c.497 0 .97-.011 1.401.014 1.291.074 2.198.467 2.198 2.434V17H67v-3.988L66 13v4h-3v-4.002z" fill="#6a737d"/><g><path fill="none" d="M0 0h100v100H0z"/></g></svg>