<svg viewBox="0 0 109 109" fill-rule="evenodd" clip-rule="evenodd" stroke-linecap="round" stroke-miterlimit="3" class="icon"><path d="M54.325 4.325c27.596 0 50 22.404 50 50s-22.404 50-50 50-50-22.404-50-50 22.404-50 50-50zm0 4c25.388 0 46 20.612 46 46s-20.612 46-46 46-46-20.612-46-46 20.612-46 46-46z" fill="#6a737d"/><g transform="translate(-116.812 -116.812) scale(1.36364)" fill="#6a737d"><circle cx="125.5" cy="125.5" r="5.5"/><path d="M125.5 120c3.036 0 5.5 2.464 5.5 5.5s-2.464 5.5-5.5 5.5a5.502 5.502 0 01-5.5-5.5c0-3.036 2.464-5.5 5.5-5.5zm0 2.933a2.568 2.568 0 010 5.134 2.568 2.568 0 010-5.134z"/></g><path d="M54.325 47.325v-25m7 32h19M54.325 102.325v-6M54.325 12.325v-6M102.325 54.325h-6M12.325 54.325h-6" fill="none" stroke="#6a737d" stroke-width="4"/><path d="M54.325 54.325l-28 32" fill="none" stroke="#6a737d" stroke-width="1.6"/><path fill="none" d="M4.325 4.325h100v100h-100z"/></svg>