<svg viewBox="0 0 256 256" fill-rule="evenodd" clip-rule="evenodd" stroke-linecap="round" stroke-linejoin="round" stroke-miterlimit="2" class="icon"><circle cx="130" cy="130" r="50" fill="none" stroke="#6a737d" stroke-width="24.61" transform="translate(62.4 85.1) scale(.325)"/><path d="M91.54 136.945c2.606-3.089 7.416-5.122 12.882-5.038 5.25.081 9.834 2.095 12.413 5.06-2.723 3.476-7.492 5.744-12.88 5.66-5.199-.08-9.754-2.328-12.415-5.682z" fill="#6a737d"/><circle cx="127.5" cy="107.5" r="12.5" fill="#6a737d" transform="matrix(.4084 .0063 -.0063 .4084 52.684 78.192)"/><path d="M179 105.369c0-1.424-.709-2.79-1.97-3.797-1.261-1.006-2.971-1.572-4.755-1.572h-85.55c-1.784 0-3.494.566-4.755 1.572-1.261 1.007-1.97 2.373-1.97 3.797v38.262c0 1.424.709 2.79 1.97 3.797 1.261 1.006 2.971 1.572 4.755 1.572h85.55c1.784 0 3.494-.566 4.755-1.572 1.261-1.007 1.97-2.373 1.97-3.797v-38.262z" fill="none" stroke="#6a737d" stroke-width="8.73" stroke-miterlimit="3" transform="matrix(1.0101 0 0 1.26531 -2.808 -29.53)"/><path d="M134 114h34m-34 14h34m-34 14h34" fill="none" stroke="#6a737d" stroke-width="8" stroke-miterlimit="3"/></svg>