<svg viewBox="0 0 108 70" fill-rule="evenodd" clip-rule="evenodd" stroke-linecap="round" stroke-linejoin="round" stroke-miterlimit="3" class="icon"><path d="M179 105.369c0-1.424-.709-2.79-1.97-3.797-1.261-1.006-2.971-1.572-4.755-1.572h-85.55c-1.784 0-3.494.566-4.755 1.572-1.261 1.007-1.97 2.373-1.97 3.797v38.262c0 1.424.709 2.79 1.97 3.797 1.261 1.006 2.971 1.572 4.755 1.572h85.55c1.784 0 3.494-.566 4.755-1.572 1.261-1.007 1.97-2.373 1.97-3.797v-38.262z" fill="none" stroke="#6a737d" stroke-width="6.99" transform="matrix(1.0101 0 0 1.26531 -76.808 -122.53)"/><path fill="#6a737d" d="M5 18h100v17H5z"/></svg>