<svg viewBox="0 0 100 100" fill-rule="evenodd" clip-rule="evenodd" stroke-linecap="round" stroke-linejoin="round" stroke-miterlimit="3" class="icon"><path d="M100 50c0-27.596-22.404-50-50-50S0 22.404 0 50s22.404 50 50 50 50-22.404 50-50zm-4 0c0 25.388-20.612 46-46 46S4 75.388 4 50 24.612 4 50 4s46 20.612 46 46z" fill="#6a737d"/><ellipse cx="108.5" cy="130" rx="8.5" ry="10" fill="#6a737d" stroke="#6a737d" stroke-width="7.33" transform="matrix(.58823 0 0 .5 -41.824 -15)"/><ellipse cx="108.5" cy="130" rx="8.5" ry="10" fill="#6a737d" stroke="#6a737d" stroke-width="7.33" transform="matrix(.58823 0 0 .5 14.177 -15)"/><ellipse cx="108.5" cy="130" rx="8.5" ry="10" fill="#6a737d" stroke="#6a737d" stroke-width="7.33" transform="matrix(.58823 0 0 .5 -13.823 -15)"/></svg>