<svg viewBox="0 0 100 100" fill-rule="evenodd" clip-rule="evenodd" stroke-linejoin="round" stroke-miterlimit="2" class="icon"><path d="M48 9.388C48 4.758 44.241 1 39.612 1H8.387C3.758 1 0 4.758 0 9.388v31.224C0 45.242 3.758 49 8.387 49h31.225C44.242 49 48 45.242 48 40.612V9.388zm-4 0v31.224A4.39 4.39 0 0139.612 45H8.387A4.39 4.39 0 014 40.612V9.388A4.39 4.39 0 018.387 5h31.225A4.39 4.39 0 0144 9.388zM48 59.388C48 54.758 44.241 51 39.612 51H8.387C3.758 51 0 54.758 0 59.388v31.224C0 95.242 3.758 99 8.387 99h31.225C44.242 99 48 95.242 48 90.612V59.388zm-4 0v31.224A4.39 4.39 0 0139.612 95H8.387A4.39 4.39 0 014 90.612V59.388A4.39 4.39 0 018.387 55h31.225A4.39 4.39 0 0144 59.388zM100 59.388c0-4.63-3.759-8.388-8.388-8.388H60.387C55.758 51 52 54.758 52 59.388v31.224C52 95.242 55.758 99 60.387 99h31.225c4.63 0 8.388-3.758 8.388-8.388V59.388zm-4 0v31.224A4.39 4.39 0 0191.612 95H60.387A4.39 4.39 0 0156 90.612V59.388A4.39 4.39 0 0160.387 55h31.225A4.39 4.39 0 0196 59.388zM100 9.388C100 4.758 96.241 1 91.612 1H60.387C55.758 1 52 4.758 52 9.388v31.224C52 45.242 55.758 49 60.387 49h31.225c4.63 0 8.388-3.758 8.388-8.388V9.388zm-4 0v31.224A4.39 4.39 0 0191.612 45H60.387A4.39 4.39 0 0156 40.612V9.388A4.39 4.39 0 0160.387 5h31.225A4.39 4.39 0 0196 9.388z" fill="#6a737d"/><g><path fill="none" d="M0 0h100v100H0z"/></g></svg>