<svg viewBox="0 0 100 100" fill-rule="evenodd" clip-rule="evenodd" stroke-linejoin="round" stroke-miterlimit="2" class="icon"><path d="M50 0L8.333 35v65h18.334V76.665a8.331 8.331 0 018.331-8.332h.004a8.331 8.331 0 018.331 8.332V100h48.334V35L50 0zm-2.667 96h40.334V36.864L50 5.224l-37.667 31.64V96h10.334V76.665c0-6.81 5.52-12.332 12.331-12.332h.004c6.81 0 12.331 5.521 12.331 12.332V96zM56 54.165v.003C56 60.98 61.52 66.5 68.332 66.5h.003c6.81 0 12.332-5.52 12.332-12.332v-.003c0-6.81-5.521-12.332-12.332-12.332h-.003C61.52 41.833 56 47.354 56 54.165zm4 0a8.331 8.331 0 018.332-8.332h.003a8.331 8.331 0 018.332 8.332v.003a8.331 8.331 0 01-8.332 8.332h-.003A8.331 8.331 0 0160 54.168v-.003z" fill="#6a737d"/><path fill="none" d="M0 0h100v100H0z"/></svg>