<svg viewBox="0 0 104 105" fill-rule="evenodd" clip-rule="evenodd" stroke-linecap="round" stroke-linejoin="round" stroke-miterlimit="3" class="icon"><path d="M55.129 19.675l3.888-3.97c7.411-7.569 19.556-7.696 27.125-.284l.003.002c7.569 7.412 7.696 19.557.284 27.126L69.015 60.332c-6.644 6.784-17.522 6.922-24.335.308l-.001-.001a2.43 2.43 0 01-.043-3.441c.292-.3.59-.602.862-.88a1.577 1.577 0 012.237-.015s0 0 0 0c5.463 5.423 14.288 5.397 19.718-.06l15.982-16.056a15.11 15.11 0 00-.05-21.368v-.001a14.801 14.801 0 00-20.934.049l-4.018 4.037-3.304-3.229z" fill="#6a737d" stroke="#6a737d" stroke-width="3.9997388999999997"/><path d="M46.72 84.325l-3.887 3.97c-7.411 7.569-19.556 7.696-27.125.284l-.003-.002C8.136 81.165 8.01 69.02 15.421 61.45L33.157 43.34c6.468-6.604 17.055-6.745 23.696-.313v.002a1.53 1.53 0 01.029 2.174l-1.495 1.527a1.565 1.565 0 01-2.225.016l-.002-.002c-4.936-4.897-12.906-4.872-17.811.056L18.415 63.813a15.11 15.11 0 00.05 21.368v.001a14.801 14.801 0 0020.934-.049l4.018-4.037 3.304 3.229z" fill="#6a737d" stroke="#6a737d" stroke-width="3.9997388999999997"/><g><path fill="none" d="M3.007 4.129h100v100h-100z"/></g></svg>