<svg viewBox="0 0 100 104" fill-rule="evenodd" clip-rule="evenodd" stroke-linejoin="round" stroke-miterlimit="2" class="icon"><path fill="none" d="M0 1.769h100v100H0z"/><path d="M50.245.004c17.2.291 31.054 16.47 29.773 34.67l-.024.321a33.664 33.664 0 01-2.214 9.637c-6.93 21.413-25.608 56.622-26.767 58.798l-.056.106S29.374 66.734 22.22 44.632a33.664 33.664 0 01-2.238-9.959C18.702 16.484 32.434.297 49.755.004V0h.49v.004zM50 23.768c4.415 0 8 3.585 8 8s-3.585 8-8 8-8-3.585-8-8 3.585-8 8-8z" fill="#6a737d"/></svg>