<svg viewBox="0 0 100 100" fill-rule="evenodd" clip-rule="evenodd" stroke-linecap="round" stroke-miterlimit="2" class="icon"><path fill="none" d="M0 0h100v100H0z"/><ellipse cx="139" cy="100" rx="11" ry="10" fill="#6a737d" stroke="#6a737d" stroke-width="7.85" transform="matrix(.72727 0 0 .8 -51.09 -50)"/><path d="M50.237.004c16.612.281 29.992 15.908 28.756 33.485a32.512 32.512 0 01-2.162 9.618c-6.694 20.682-24.733 54.69-25.852 56.79l-.055.103S30.08 64.455 23.17 43.107a32.548 32.548 0 01-2.161-9.618C19.77 15.92 33.035.287 49.764.004V0h.473v.004zM50.084 4l-.252.003c-14.53.246-25.908 13.947-24.834 29.205l.02.275c.229 2.87.875 5.614 1.875 8.164l.082.229c5.032 15.547 17.572 38.722 23.79 49.785C56.499 80.52 68 57.402 73.027 41.876a3.58 3.58 0 01.082-.23c1-2.549 1.646-5.293 1.875-8.163l.02-.275C76.077 17.942 64.597 4.248 50.17 4.003L50.084 4z" fill="#6a737d"/></svg>