<svg viewBox="0 0 81 109" fill-rule="evenodd" clip-rule="evenodd" stroke-linecap="round" stroke-linejoin="round" stroke-miterlimit="3" class="icon"><path d="M230 108.938c0-1.623-1.578-2.938-3.525-2.938h-52.95c-1.947 0-3.525 1.315-3.525 2.938v44.124c0 1.623 1.578 2.938 3.525 2.938h52.95c1.947 0 3.525-1.315 3.525-2.938v-44.124z" fill="none" stroke="#6a737d" stroke-width="7.71" transform="matrix(1.1737 0 0 1.40845 -194.53 -116.127)"/><circle cx="124" cy="127" r="6" fill="none" stroke="#6a737d" stroke-width="2.88" transform="matrix(2.08334 0 0 2.08334 -218.122 -196.203)"/><path d="M40.211 64.38v8" fill="none" stroke="#6a737d" stroke-width="6"/><g><path d="M118 103c.048-20.265 1-21.027 12-21.027s11.85 1.22 12 21.027" fill="none" stroke="#6a737d" stroke-width="7.28" transform="matrix(1.40845 0 0 1.33968 -142.887 -104.818)"/></g></svg>