<svg viewBox="0 0 100 100" fill-rule="evenodd" clip-rule="evenodd" stroke-linejoin="round" stroke-miterlimit="2" class="icon"><path d="M22 76.5v18l28-18h43.345A6.656 6.656 0 00100 69.845v-57.69A6.655 6.655 0 0093.345 5.5H6.655A6.655 6.655 0 000 12.155v57.69A6.656 6.656 0 006.655 76.5H22zm4 10.673L48.825 72.5h44.52A2.655 2.655 0 0096 69.845v-57.69A2.655 2.655 0 0093.345 9.5H6.655A2.655 2.655 0 004 12.155v57.69A2.655 2.655 0 006.655 72.5H26v14.673z" fill="#6a737d"/><path fill="none" d="M0 0h100v100H0z"/></svg>