<svg viewBox="0 0 110 150" fill-rule="evenodd" clip-rule="evenodd" stroke-linecap="round" stroke-linejoin="round" stroke-miterlimit="3" class="icon"><path d="M26 42.5h46m10 0h10m-69 20h30m8 0h16m8 0h7m-69-20h3m-3 40h10m9 0h50m-69 20h24m0 0h24m7 0h14m-69 20h57m6 0h6m-76-96h42m16 0h18" fill="none" stroke="#6a737d" stroke-width="6"/><circle cx="92" cy="83" r="1" fill="#6a737d" stroke="#6a737d" stroke-width="6" transform="translate(-77 -40.5)"/><circle cx="92" cy="83" r="1" fill="#6a737d" stroke="#6a737d" stroke-width="6" transform="translate(-77 -20.5)"/><circle cx="92" cy="83" r="1" fill="#6a737d" stroke="#6a737d" stroke-width="6" transform="translate(-77 -.5)"/><circle cx="92" cy="83" r="1" fill="#6a737d" stroke="#6a737d" stroke-width="6" transform="translate(-77 19.5)"/><circle cx="92" cy="83" r="1" fill="#6a737d" stroke="#6a737d" stroke-width="6" transform="translate(-77 39.5)"/><path d="M105 12.195v125.61A7.195 7.195 0 0197.805 145h-85.61a7.198 7.198 0 01-5.088-2.107A7.198 7.198 0 015 137.805V12.195c0-1.908.758-3.738 2.107-5.088A7.198 7.198 0 0112.195 5h85.61A7.195 7.195 0 01105 12.195z" fill="none" stroke="#6a737d" stroke-width="10"/></svg>