<svg viewBox="0 0 100 100" fill-rule="evenodd" clip-rule="evenodd" stroke-linecap="round" stroke-miterlimit="2" class="icon"><path d="M59.242 28c.281 0 .508.227.508.508v42.984a.507.507 0 01-.508.508h-3.984a.507.507 0 01-.508-.508V28.508c0-.281.227-.508.508-.508h3.984zM44.742 28c.281 0 .508.227.508.508v42.984a.507.507 0 01-.508.508h-3.984a.507.507 0 01-.508-.508V28.508c0-.281.227-.508.508-.508h3.984z" fill="#6a737d" stroke="#6a737d" stroke-width="2"/><g><path fill="none" d="M0 0h100v100H0z"/></g></svg>