<svg viewBox="0 0 100 100" fill-rule="evenodd" clip-rule="evenodd" stroke-linecap="round" stroke-linejoin="round" stroke-miterlimit="3" class="icon"><path d="M85.966 84.777a.71.71 0 00.678-.805L84.06 65.024a2.629 2.629 0 00-2.605-2.274H68.75l-5.973 9.955a3.372 3.372 0 01-4.245 1.353l-6.857-3.008a45.033 45.033 0 01-24.974-28.06l-.763-2.491a3.373 3.373 0 011.184-3.672L37.75 28.75V16.913a2.369 2.369 0 00-2.154-2.359L18.04 12.958a2.174 2.174 0 00-2.367 2.09v.003a67.518 67.518 0 0069.775 69.743l.518-.017z" fill="#6a737d" stroke="#6a737d" stroke-width="4"/><path fill="none" d="M0 0h100v100H0z"/></svg>