<svg viewBox="0 0 103 100" fill-rule="evenodd" clip-rule="evenodd" stroke-linecap="round" stroke-linejoin="round" stroke-miterlimit="1.5" class="icon"><path d="M138.104 128.483c.418.335.673.91.677 1.529.004.619-.244 1.199-.658 1.542l-15.83 13.108c-.453.375-1.035.41-1.514.09-.48-.319-.779-.941-.779-1.617v-25.773c0-.671.295-1.289.769-1.611.473-.321 1.051-.295 1.504.068l15.831 12.664z" fill="none" stroke="#6a737d" stroke-width="2.59" transform="matrix(1.7 0 0 1.36667 -164.98 -126.3)"/><path fill="none" d="M1.02 0h100v100h-100z"/><path d="M51.02 0c28.16 0 51.021 22.404 51.021 50s-22.861 50-51.02 50C22.86 100 0 77.596 0 50S22.86 0 51.02 0zm0 4c25.93 0 47.021 20.59 47.021 46s-21.09 46-47.02 46C25.09 96 4 75.41 4 50S25.09 4 51.02 4z" fill="#6a737d"/></svg>