<svg viewBox="0 0 100 100" fill-rule="evenodd" clip-rule="evenodd" stroke-linejoin="round" stroke-miterlimit="2" class="icon"><path d="M16.361 0A16.362 16.362 0 000 16.361v67.278A16.362 16.362 0 0016.361 100h67.278A16.362 16.362 0 00100 83.639V16.361A16.362 16.362 0 0083.639 0H16.361zm0 4h67.278c3.278 0 6.422 1.302 8.74 3.621A12.357 12.357 0 0196 16.361v67.278c0 3.278-1.302 6.422-3.621 8.74A12.357 12.357 0 0183.639 96H16.361a12.357 12.357 0 01-8.74-3.621A12.357 12.357 0 014 83.639V16.361c0-3.278 1.302-6.422 3.621-8.74A12.357 12.357 0 0116.361 4zM70.94 45.929L44.029 28.621A6.508 6.508 0 0034 34.095v35.222a6.507 6.507 0 0010.115 5.418L71.026 56.82a6.507 6.507 0 00-.086-10.891zm-2.164 3.364a2.507 2.507 0 01.033 4.198 883048.44 883048.44 0 01-26.911 17.914A2.507 2.507 0 0138 69.317V34.095a2.507 2.507 0 013.865-2.109l26.911 17.307z" fill="#6a737d"/><path fill="none" d="M0 0h100v100H0z"/></svg>