<svg viewBox="0 0 100 100" fill-rule="evenodd" clip-rule="evenodd" stroke-linejoin="round" stroke-miterlimit="2" class="icon"><path d="M71.907 73.366a31.077 31.077 0 008.867-27.364c-.146-1.005-.314-1.995-.473-2.937a.41.41 0 00-.816.087v.006l.004.082.152 3.632a27.657 27.657 0 01-10.723 23.049l-.002.002a26.13 26.13 0 01-31.599.267l-.925-.69 11.797.512-.01-5.336-20.216-.454a1.467 1.467 0 00-1.491 1.641l2.082 17.524 5.617-.01-1.423-10.402.85.805c10.623 10.054 27.25 10.057 37.877.007.145-.137.289-.277.432-.421zM28.16 26.602a31.087 31.087 0 00-8.868 27.609c.162.996.336 1.98.5 2.917a.411.411 0 00.816-.092v-.007l-.005-.08-.177-3.636a27.635 27.635 0 0110.571-23.109h.001a26.122 26.122 0 0131.588-.465l.939.691-11.8-.44.046 5.335 20.217.333a1.468 1.468 0 001.481-1.651l-2.199-17.51-5.617.044 1.493 10.393-.869-.812c-10.682-9.983-27.302-9.882-37.862.231l-.001.002c-.085.08-.17.163-.254.247z" fill="#6a737d"/><g><path fill="none" d="M0 0h100v100H0z"/></g></svg>