<svg viewBox="0 0 100 103" fill-rule="evenodd" clip-rule="evenodd" stroke-linecap="round" stroke-miterlimit="3" class="icon"><path d="M128 120V90" fill="none" stroke="#6a737d" stroke-width="3.38" transform="matrix(.78702 0 0 1.47811 -50.739 -123.425)"/><path d="M33 23.668l12.719-12.975a5.814 5.814 0 018.428.127L66 23.668" fill="none" stroke="#6a737d" stroke-width="4"/><g><path d="M110 110h-9.934c-2.67 0-5.23.712-7.118 1.98S90 114.968 90 116.761v36.478c0 1.793 1.06 3.513 2.948 4.781 1.888 1.268 4.448 1.98 7.118 1.98h59.868c2.67 0 5.23-.712 7.118-1.98s2.948-2.988 2.948-4.781v-36.478c0-1.793-1.06-3.513-2.948-4.781-1.888-1.268-4.448-1.98-7.118-1.98H150" fill="none" stroke="#6a737d" stroke-width="3.5" stroke-linejoin="round" transform="matrix(.9 0 0 1.34 -67 -115.11)"/></g><g><path fill="none" d="M0 2.808h100v100H0z"/></g></svg>