<svg viewBox="0 0 100 101" fill-rule="evenodd" clip-rule="evenodd" stroke-linecap="round" stroke-linejoin="round" stroke-miterlimit="1.5" class="icon"><path d="M112.264 100l5.196 45.896c.264 2.336 2.277 4.104 4.672 4.104h36.96c2.356 0 4.348-1.712 4.66-4.004L170 100" fill="none" stroke="#6a737d" stroke-width="6.12" transform="matrix(1.13248 0 0 1.15385 -109.188 -76.077)"/><path d="M32.051 39.308l5.128 52.564M69.23 39.308l-6.41 52.564M50.64 39.308v52.564" fill="none" stroke="#6a737d" stroke-width="6.999993"/><g><path d="M11.538 24.795h76.923" fill="none" stroke="#6a737d" stroke-width="5.999993999999999"/><path d="M160 75.294v-9.405c0-1.562-.703-3.06-1.955-4.164-1.251-1.105-2.949-1.725-4.719-1.725h-26.652c-1.77 0-3.468.62-4.719 1.725-1.252 1.104-1.955 2.602-1.955 4.164v9.405" fill="none" stroke="#6a737d" stroke-width="5.84" transform="matrix(.96154 0 0 1.08974 -84.615 -62.385)"/></g><g><path fill="none" d="M0 0h100v100H0z"/></g></svg>