<svg viewBox="0 0 100 100" fill-rule="evenodd" clip-rule="evenodd" stroke-linecap="round" stroke-miterlimit="3" class="icon"><g fill="none" stroke="#6a737d"><path d="M51.538 85v-6.154" stroke-width="3.999996"/><path d="M51.538 69.615V55.77v13.846z" stroke-width="5.999994" stroke-linejoin="round"/><path d="M51.538 46.538V15m21.539 21.538L51.538 15 26.923 36.538" stroke-width="7.999992"/></g><path d="M100 16.789C100 7.523 92.478 0 83.212 0H16.789C7.523 0 0 7.523 0 16.79v66.423C0 92.478 7.523 100 16.79 100h66.423C92.478 100 100 92.478 100 83.212V16.789zm-4 0v66.423C96 90.27 90.27 96 83.212 96H16.789C9.73 96 4 90.27 4 83.212V16.789C4 9.73 9.73 4 16.79 4h66.423C90.27 4 96 9.73 96 16.79z" fill="#6a737d"/><path fill="none" d="M0 0h100v100H0z"/></svg>