<svg viewBox="0 0 100 104" fill-rule="evenodd" clip-rule="evenodd" stroke-linecap="round" stroke-linejoin="round" stroke-miterlimit="3" class="icon"><path d="M57.217 8.063a11.223 11.223 0 00-14.435 0L12.337 33.637a11.224 11.224 0 00-4.004 8.591V102h18.334V64.998a9.665 9.665 0 019.665-9.665h27.336a9.665 9.665 0 019.665 9.665V102h18.334V42.228c0-3.314-1.466-6.459-4.004-8.591L57.217 8.063zM26.667 102h46.666m-44.666-6h44.666m-46.666-9h33.666M39 77h34m9 24V84M27 69h46m-2-7H29" fill="none" stroke="#6a737d" stroke-width="3.999984"/><path d="M11 38h31" fill="none" stroke="#6a737d" stroke-width="4"/><g><path fill="none" d="M0 4h100v100H0z"/></g></svg>