<svg viewBox="0 0 100 100" xmlns="http://www.w3.org/2000/svg" fill-rule="evenodd" clip-rule="evenodd" stroke-linejoin="round" stroke-miterlimit="2" class="icon"><path d="M78.18 13.749a1.22 1.22 0 011.517.812c1.851 6.118 7.153 16.885 8.94 22.794a5.73 5.73 0 01-.432 4.366L65.24 84.613a3.196 3.196 0 01-4.326 1.31c-4.059-2.174-9.429-4.95-15.352-8.121a2.497 2.497 0 00-2.357 4.401c5.924 3.171 11.294 5.947 15.353 8.12a8.188 8.188 0 0011.084-3.354l22.964-42.892a10.727 10.727 0 00.81-8.168c-1.788-5.91-7.09-16.677-8.94-22.793a6.213 6.213 0 00-7.742-4.145 2.496 2.496 0 101.446 4.778z" fill="#6a737d"/><path d="M45.096 11.41a8.892 8.892 0 016.288-2.605H78.99A4.01 4.01 0 0183 12.817V40.42c0 2.358-.937 4.62-2.605 6.288L43.225 83.881a6.15 6.15 0 01-8.698 0L7.925 57.279a6.15 6.15 0 010-8.698l37.171-37.172zm32.912 2.387H51.383c-1.034 0-2.025.41-2.757 1.142L11.455 52.111a1.159 1.159 0 000 1.638L38.057 80.35a1.159 1.159 0 001.638 0l37.171-37.172a3.897 3.897 0 001.142-2.757V13.797zm-5.156 5.157c-4.14-4.14-10.863-4.14-15.003 0-4.14 4.14-4.14 10.862 0 15.002 4.14 4.14 10.863 4.14 15.003 0 4.14-4.14 4.14-10.862 0-15.002zm-3.53 3.53a5.618 5.618 0 010 7.942 5.618 5.618 0 01-7.943 0 5.618 5.618 0 010-7.942 5.618 5.618 0 017.943 0z" fill="#6a737d"/></svg>