<svg viewBox="0 0 1500 651" fill-rule="evenodd" clip-rule="evenodd" stroke-linecap="round" stroke-miterlimit="1" class="logo"><path class="logo-handle" d="M384 144c82.91-325.788 185.548-229.6 240 0" fill="none" stroke="#24292e" stroke-width="12" transform="matrix(.99996 0 0 .99998 -263.99 74.294)"/><path d="M455.98 218.292l23.998 431.993H-.002l24-431.993h431.981zm-94.918 36.19c39.737 0 71.997 32.26 71.997 71.998 0 39.738-32.26 71.999-71.997 71.999-39.736 0-71.997-32.261-71.997-71.999 0-39.737 32.261-71.999 71.997-71.999z" fill="#f4c91e"/><g><path d="M495.479 441.369h17.556v-56.687c6.345 10.999 19.247 20.094 37.438 20.094 30.457 0 50.34-23.267 50.34-57.11v-1.692c0-34.478-21.363-55.63-50.34-55.63-16.076 0-31.093 9.73-37.438 20.518v-18.614h-17.556v149.12zm53.301-51.188c-21.574 0-36.38-13.325-36.38-41.67v-1.691c0-28.344 15.652-41.881 36.169-41.881 18.613 0 34.054 13.96 34.054 41.88v1.693c0 26.863-11.845 41.67-33.843 41.67zM628.116 441.369h17.555v-56.687c6.346 10.999 19.248 20.094 37.438 20.094 30.458 0 50.34-23.267 50.34-57.11v-1.692c0-34.478-21.362-55.63-50.34-55.63-16.075 0-31.092 9.73-37.438 20.518v-18.614h-17.555v149.12zm53.301-51.188c-21.574 0-36.38-13.325-36.38-41.67v-1.691c0-28.344 15.652-41.881 36.169-41.881 18.613 0 34.053 13.96 34.053 41.88v1.693c0 26.863-11.844 41.67-33.842 41.67zM806.016 404.776c24.959 0 43.36-11.633 47.168-33.843h-17.556c-2.326 12.903-12.267 19.248-29.4 19.248-22.632 0-34.688-13.96-35.534-39.13h83.336v-5.712c0-39.554-24.113-54.995-49.706-54.995-30.458 0-51.82 23.267-51.82 56.687v1.692c0 34.055 22.208 56.053 53.512 56.053zm-34.688-67.898c2.961-19.67 15.018-31.939 32.996-31.939 18.19 0 30.035 9.095 31.727 31.94h-64.723zM880.875 402.872h17.555v-67.051c0-19.883 14.595-30.247 30.881-30.247 17.767 0 26.017 8.672 26.017 28.132v69.166h17.555v-67.897c0-32.151-16.075-44.63-38.918-44.63-18.19 0-30.458 9.094-35.535 19.459v-17.556h-17.555v110.624zM1057.471 404.776c30.035 0 52.244-19.248 52.244-44.63 0-28.556-17.767-38.709-51.398-43.997-30.88-4.653-36.38-12.268-36.38-27.074 0-14.172 10.787-24.536 31.515-24.536 20.94 0 31.939 7.826 35.535 26.863h16.498c-2.962-26.863-21.786-41.67-52.033-41.67-28.554 0-48.648 17.768-48.648 41.035 0 26.863 18.825 36.805 50.552 41.67 28.766 4.653 36.592 11.845 36.592 28.978 0 17.133-15.018 28.555-34.477 28.555-30.458 0-37.65-15.23-39.976-33.209h-17.767c2.75 25.806 17.344 48.015 57.743 48.015zM1139.979 402.872h17.556v-67.051c0-19.883 14.594-30.247 30.88-30.247 17.768 0 26.017 8.672 26.017 28.132v69.166h17.556v-67.897c0-32.151-16.076-44.63-38.919-44.63-18.19 0-30.458 9.094-35.534 19.459v-70.436h-17.556v163.504zM1312.557 390.181c-22.42 0-36.17-16.498-36.17-41.67v-1.691c0-25.383 13.96-41.881 36.17-41.881 21.997 0 36.168 16.498 36.168 42.092v1.48c0 24.96-13.96 41.67-36.168 41.67zm-.212 14.595c31.516 0 54.57-23.056 54.57-56.476v-1.692c0-33.208-23.054-56.264-54.358-56.264s-54.36 23.267-54.36 56.476v1.692c0 32.362 22.633 56.264 54.148 56.264zM1394.236 441.369h17.556v-56.687c6.345 10.999 19.248 20.094 37.438 20.094 30.458 0 50.34-23.267 50.34-57.11v-1.692c0-34.478-21.363-55.63-50.34-55.63-16.075 0-31.093 9.73-37.438 20.518v-18.614h-17.556v149.12zm53.302-51.188c-21.575 0-36.38-13.325-36.38-41.67v-1.691c0-28.344 15.651-41.881 36.168-41.881 18.613 0 34.054 13.96 34.054 41.88v1.693c0 26.863-11.845 41.67-33.842 41.67z" fill="#24292e" fill-rule="nonzero"/></g></svg>
