<svg viewBox="0 0 100 100" fill-rule="evenodd" clip-rule="evenodd" stroke-linecap="round" stroke-miterlimit="2" class="icon"><path d="M150 115.9v-4.856c0-2.786-2.207-5.044-4.929-5.044h-33.142a4.871 4.871 0 00-3.485 1.477 5.102 5.102 0 00-1.444 3.567v33.912c0 2.786 2.207 5.044 4.929 5.044h4.746" fill="none" stroke="#6a737d" stroke-width="2.13" transform="matrix(1.89922 0 0 1.85605 -201.217 -194.742)"/><path d="M32.446 18.333a14.116 14.116 0 00-9.98 4.133 14.116 14.116 0 00-4.133 9.978v53.444A14.116 14.116 0 0032.446 100h53.44A14.116 14.116 0 00100 85.887V32.444c0-3.741-1.486-7.331-4.132-9.978a14.116 14.116 0 00-9.98-4.133h-53.44zm0 4h53.44c2.684 0 5.256 1.065 7.151 2.962A10.108 10.108 0 0196 32.445v53.443c0 2.682-1.065 5.252-2.963 7.149a10.106 10.106 0 01-7.15 2.962h-53.44a10.106 10.106 0 01-7.151-2.962 10.108 10.108 0 01-2.963-7.15V32.445c0-2.682 1.066-5.252 2.963-7.15a10.106 10.106 0 017.15-2.961z" fill="#6a737d"/><path d="M100 128h50" fill="none" stroke="#6a737d" stroke-width="9.91" stroke-linejoin="round" stroke-miterlimit="3" transform="matrix(.51041 0 0 .2552 -3.104 25.99)"/><path d="M100 128h50" fill="none" stroke="#6a737d" stroke-width="9.91" stroke-linejoin="round" stroke-miterlimit="3" transform="matrix(0 .51041 -.2552 0 93.364 -5.146)"/></svg>