<svg viewBox="0 0 100 100" xmlns="http://www.w3.org/2000/svg" fill-rule="evenodd" clip-rule="evenodd" stroke-linejoin="round" stroke-miterlimit="2" class="icon"><path d="M33.029 67.778v-.807a3 3 0 004.243 0l45.255-45.255a5 5 0 000-7.071l1.414-1.415-1.414 1.415-.708-.707a5 5 0 00-7.07 0l-58.69 58.69a8 8 0 000 11.313l-1.415 1.414 1.414-1.414a8 8 0 0011.314 0L69.8 41.515a2 2 0 012.828 2.828L30.201 86.77c-4.686 4.686-12.285 4.686-16.971 0l1.414-1.415-1.414 1.415c-4.686-4.686-4.686-12.285 0-16.971l58.69-58.69a9 9 0 0112.728 0l.707.707-1.414 1.414 1.414-1.414a9 9 0 010 12.728L40.1 69.8a7 7 0 01-9.9 0h.743-.742l1.262-1.262.152-.152-.152.152-1.262 1.262a7 7 0 010-9.9l31.82-31.82a2 2 0 012.828 2.83l-31.82 31.819a3 3 0 000 4.243V68.385h-1.414 1.414v-.607zm-1.414.607v1.414h-.672.672v-1.414zm.126-.127l-.126.127.126-.127 1.288-1.287-1.288 1.287z" fill="#6a737d"/></svg>