<svg viewBox="0 0 100 100" xmlns="http://www.w3.org/2000/svg" fill-rule="evenodd" clip-rule="evenodd" stroke-linecap="round" stroke-linejoin="round" stroke-miterlimit="3" class="icon"><path d="M32.558 81.058A17.444 17.444 0 0049.999 98.5h.002a17.442 17.442 0 0017.441-17.442h-4A13.44 13.44 0 0150.002 94.5h-.002a13.442 13.442 0 01-13.442-13.442h-4z" fill="#6a737d"/><path d="M49.998 11.878c-12.792 0-23.162 10.37-23.162 23.163v10.166c0 4.448-1.316 8.797-3.784 12.498l-7.846 11.768a3.678 3.678 0 003.061 5.72h63.466a3.678 3.678 0 003.06-5.72l-7.845-11.768a22.527 22.527 0 01-3.784-12.498V35.041c0-12.793-10.37-23.163-23.163-23.163h-.003zm.002 0V3.5" fill="none" stroke="#6a737d" stroke-width="3.9995816"/></svg>