<svg viewBox="0 0 100 100" fill-rule="evenodd" clip-rule="evenodd" stroke-linejoin="round" stroke-miterlimit="2" class="icon"><path d="M5.555 20h-1.02a4.538 4.538 0 01-3.207-1.328A4.538 4.538 0 010 15.465v-4.42A6.046 6.046 0 016.045 5h87.91A6.046 6.046 0 01100 11.045v4.42a4.538 4.538 0 01-1.328 3.207A4.538 4.538 0 0195.465 20h-1.02v-.556H5.554V20h88.89v68.622A6.378 6.378 0 0188.066 95H11.933a6.378 6.378 0 01-6.378-6.378V20zm4 4v64.622A2.378 2.378 0 0011.933 91h76.134a2.378 2.378 0 002.377-2.378V24H9.555zm27.11 4.777a7.332 7.332 0 00-7.332 7.333v.002a7.332 7.332 0 007.332 7.332h26.67a7.332 7.332 0 007.332-7.332v-.002a7.332 7.332 0 00-7.333-7.333H36.665zm0 4a3.333 3.333 0 00-3.332 3.333v.002a3.333 3.333 0 003.332 3.332h26.67a3.333 3.333 0 003.332-3.332v-.002a3.333 3.333 0 00-3.333-3.333H36.665zM95.928 15.73a.514.514 0 00.072-.265v-4.42C96 9.915 95.084 9 93.954 9H6.045C4.915 9 4 9.915 4 11.045v4.42c0 .094.024.185.072.265a3.966 3.966 0 011.484-.286h88.888c.525 0 1.025.101 1.484.286z" fill="#6a737d"/></svg>