<svg viewBox="0 0 100 100" xmlns="http://www.w3.org/2000/svg" fill-rule="evenodd" clip-rule="evenodd" stroke-linejoin="round" stroke-miterlimit="2" class="icon"><path d="M20 8.968A4.967 4.967 0 0124.968 4h50.064A4.967 4.967 0 0180 8.968v82.064A4.967 4.967 0 0175.032 96H24.968A4.967 4.967 0 0120 91.032V8.968zm4 0c0-.257.102-.503.283-.685A.971.971 0 0124.968 8h50.064c.257 0 .503.102.685.283a.971.971 0 01.283.685v82.064a.971.971 0 01-.283.685.971.971 0 01-.685.283H24.968a.971.971 0 01-.685-.283.971.971 0 01-.283-.685V8.968z" fill="#6a737d"/><path d="M30 22.686A2.685 2.685 0 0132.687 20h34.626A2.686 2.686 0 0170 22.686v10.628A2.685 2.685 0 0167.313 36H32.687A2.686 2.686 0 0130 33.314V22.686zm2 0a.687.687 0 01.687-.686h34.626a.688.688 0 01.687.686v10.628a.687.687 0 01-.687.686H32.687a.688.688 0 01-.687-.686V22.686z" fill="#6a737d"/><path d="M55.87 31.603l-.35-.364v-1.078l-.125-.224V28.23l.42-.42-.42-.42v-1.694l.126-.238V24.38l.35-.35.462.476v2.884l-.42.42.42.42v2.898l-.462.476zM60.585 28.285h-1.092l-.364-.364-.35.364h-1.05v1.652l-.112.224v.994l.07-.07h2.898l.462.462-.462.448h-2.898l-.882-.868V28.23l.882-.882h1.092l.35.364.364-.364h1.036v-1.652l.126-.238v-.98l-.07.07h-2.898l-.462-.462.462-.476h2.898l.882.896v2.884l-.882.896zM65.719 31.995H62.82l-.462-.448.462-.462h2.898l.07.07v-.994l-.126-.224v-1.652h-1.036l-.364-.364-.35.364H62.82l-.462-.476.462-.462h1.092l.35.364.364-.364h1.036v-1.652l.126-.238v-.98l-.07.07H62.82l-.462-.462.462-.476h2.898l.882.896v2.884l-.42.42.42.42v2.898l-.882.868z" fill="#6a737d" fill-rule="nonzero"/><g><path d="M30 45.566A1.564 1.564 0 0131.566 44h6.868A1.564 1.564 0 0140 45.566v5.868A1.564 1.564 0 0138.434 53h-6.868A1.564 1.564 0 0130 51.434v-5.868zM32 51h6v-5h-6v5zM45 45.566A1.564 1.564 0 0146.566 44h6.868A1.564 1.564 0 0155 45.566v5.868A1.564 1.564 0 0153.434 53h-6.868A1.564 1.564 0 0145 51.434v-5.868zM47 51h6v-5h-6v5zM60 45.566A1.564 1.564 0 0161.566 44h6.868A1.564 1.564 0 0170 45.566v5.868A1.564 1.564 0 0168.434 53h-6.868A1.564 1.564 0 0160 51.434v-5.868zM62 51h6v-5h-6v5zM30 62.066a1.564 1.564 0 011.566-1.566h6.868A1.564 1.564 0 0140 62.066v5.868a1.564 1.564 0 01-1.566 1.566h-6.868A1.564 1.564 0 0130 67.934v-5.868zm2 5.434h6v-5h-6v5zM30 76.066a1.564 1.564 0 011.566-1.566h6.868A1.564 1.564 0 0140 76.066v5.868a1.564 1.564 0 01-1.566 1.566h-6.868A1.564 1.564 0 0130 81.934v-5.868zm2 5.434h6v-5h-6v5zM45 76.066a1.564 1.564 0 011.566-1.566h6.868A1.564 1.564 0 0155 76.066v5.868a1.564 1.564 0 01-1.566 1.566h-6.868A1.564 1.564 0 0145 81.934v-5.868zm2 5.434h6v-5h-6v5zM45 62.066a1.564 1.564 0 011.566-1.566h6.868A1.564 1.564 0 0155 62.066v5.868a1.564 1.564 0 01-1.566 1.566h-6.868A1.564 1.564 0 0145 67.934v-5.868zm2 5.434h6v-5h-6v5zM60 62.067a1.567 1.567 0 011.566-1.567h6.868A1.567 1.567 0 0170 62.067v19.867a1.567 1.567 0 01-1.566 1.566h-6.868A1.567 1.567 0 0160 81.933V62.068zm2 19.432h6V62.501h-6V81.5z" fill="#6a737d"/></g></svg>