<svg viewBox="0 0 100 100" xmlns="http://www.w3.org/2000/svg" fill-rule="evenodd" clip-rule="evenodd" stroke-linejoin="round" stroke-miterlimit="2" class="icon"><path d="M16.035 2.923c-7.793 0-14.112 6.318-14.112 14.113v67.929c0 7.795 6.32 14.112 14.112 14.112h67.93c7.793 0 14.112-6.317 14.112-14.112V17.036c0-7.795-6.32-14.113-14.112-14.113h-67.93zm0 5a9.112 9.112 0 00-9.112 9.113v67.929a9.112 9.112 0 009.112 9.112h67.93a9.112 9.112 0 009.112-9.112V17.036a9.112 9.112 0 00-9.112-9.113h-67.93z" fill="#6a737d"/><path d="M3.846 35.692h92.308a2 2 0 000-4H3.846a2 2 0 000 4zm6.73-9.615H30.77a2 2 0 000-4H10.577a2 2 0 000 4zm25 0h5.77a2 2 0 000-4h-5.77a2 2 0 000 4zM49.038 88.577h4.808a2 2 0 000-4h-4.808a2 2 0 000 4zm9.616 0H87.5a2 2 0 000-4H58.654a2 2 0 000 4zm17.307-5.77H87.5a2 2 0 000-4H75.96a2 2 0 000 4z" fill="#6a737d"/><g><g transform="matrix(.96154 0 0 .96154 -72.115 -74)"><circle cx="97" cy="127" r="7" fill="#6a737d" fill-opacity=".64"/><circle cx="97" cy="127" r="7" fill="#6a737d" fill-opacity=".64" transform="translate(20)"/><circle cx="97" cy="127" r="7" fill="#6a737d" fill-opacity=".64" transform="translate(40)"/><circle cx="97" cy="127" r="7" fill="#6a737d" fill-opacity=".64" transform="translate(60)"/></g><g transform="matrix(.96154 0 0 .96154 -72.115 -54.77)"><circle cx="97" cy="127" r="7" fill="#6a737d" fill-opacity=".64"/><circle cx="97" cy="127" r="7" fill="#6a737d" fill-opacity=".64" transform="translate(20)"/><circle cx="97" cy="127" r="7" fill="#6a737d" fill-opacity=".64" transform="translate(40)"/><circle cx="97" cy="127" r="7" fill="#6a737d" fill-opacity=".64" transform="translate(60)"/></g></g><g><g fill="#6a737d"><g transform="matrix(.68681 0 0 .68681 -35.852 -71.802)"><circle cx="97" cy="127" r="7"/><path d="M97 120c3.863 0 7 3.137 7 7s-3.137 7-7 7-7-3.137-7-7 3.137-7 7-7zm0 5.824a1.177 1.177 0 11-.001 2.353 1.177 1.177 0 01.001-2.353z"/></g><g transform="matrix(.68681 0 0 .68681 2.61 -71.802)"><circle cx="97" cy="127" r="7"/><path d="M97 120c3.863 0 7 3.137 7 7s-3.137 7-7 7-7-3.137-7-7 3.137-7 7-7zm0 5.824a1.177 1.177 0 11-.001 2.353 1.177 1.177 0 01.001-2.353z"/></g></g><path d="M32.77 15.423V3.077a2 2 0 00-4 0v12.346a2 2 0 004 0zM71.23 15.423V3.077a2 2 0 00-4 0v12.346a2 2 0 004 0z" fill="#6a737d"/></g></svg>