<svg viewBox="0 0 100 100" xmlns="http://www.w3.org/2000/svg" fill-rule="evenodd" clip-rule="evenodd" stroke-linecap="round" stroke-miterlimit="3" class="icon"><path d="M50 0c27.596 0 50 22.404 50 50s-22.404 50-50 50S0 77.596 0 50 22.404 0 50 0zm0 4c25.388 0 46 20.612 46 46S75.388 96 50 96 4 75.388 4 50 24.612 4 50 4z" fill="#6a737d"/><g transform="translate(-121.136 -121.136) scale(1.36364)" fill="#6a737d"><circle cx="125.5" cy="125.5" r="5.5"/><path d="M125.5 120c3.036 0 5.5 2.464 5.5 5.5s-2.464 5.5-5.5 5.5a5.502 5.502 0 01-5.5-5.5c0-3.036 2.464-5.5 5.5-5.5zm0 2.933a2.568 2.568 0 010 5.134 2.568 2.568 0 010-5.134z"/></g><path d="M50 43V18m7 32h19M50 98v-6M50 8V2M98 50h-6M8 50H2" fill="none" stroke="#6a737d" stroke-width="4"/><path d="M50 50L22 82" fill="none" stroke="#6a737d" stroke-width="1.6"/></svg>