<svg viewBox="0 0 100 100" xmlns="http://www.w3.org/2000/svg" fill-rule="evenodd" clip-rule="evenodd" stroke-linejoin="round" stroke-miterlimit="2" class="icon"><path d="M86.695 16.133C94.968 25.011 100 36.922 100 50c0 27.596-22.404 50-50 50-13.078 0-24.989-5.032-33.867-13.305l2.828-2.828C27.112 91.414 38.024 96 50 96c25.388 0 46-20.612 46-46 0-11.976-4.586-22.888-12.133-31.039l2.828-2.828zM13.305 83.867C5.032 74.989 0 63.078 0 50 0 22.404 22.404 0 50 0c13.078 0 24.989 5.032 33.867 13.305l-2.828 2.828C72.888 8.586 61.976 4 50 4 24.612 4 4 24.612 4 50c0 11.976 4.586 22.888 12.133 31.039l-2.828 2.828z" fill="#6a737d"/><path d="M50 7c23.733 0 43 19.267 43 43S73.733 93 50 93 7 73.733 7 50 26.267 7 50 7zm0 4c21.524 0 39 17.476 39 39S71.523 89 50 89 11 71.523 11 50s17.476-39 39-39z" fill="#6a737d"/><path d="M48.848 71.996c-5.4-.576-9.576-3.456-12.456-8.568l4.68-4.464c2.376 4.536 5.256 6.84 8.64 6.84 4.536 0 6.768-2.376 6.768-7.056 0-1.08-.216-2.016-.648-2.808-.432-.792-1.296-1.512-2.52-2.16-1.224-.576-3.312-1.512-6.192-2.88-5.544-2.592-8.28-6.12-8.28-10.584 0-3.24.864-5.976 2.664-8.208 1.8-2.232 4.248-3.6 7.344-4.176v-5.4h4.248v5.472c3.744.36 6.768 2.016 9.144 4.968l-3.168 4.608c-2.016-2.52-4.392-3.744-7.128-3.744-1.728 0-3.168.504-4.32 1.584-1.152 1.08-1.728 2.448-1.728 4.104 0 2.088 1.512 3.888 4.608 5.256 5.976 2.736 9.72 5.04 11.088 6.84 1.296 1.8 2.016 3.96 2.016 6.48 0 3.456-.936 6.408-2.736 8.856-1.8 2.52-4.392 4.104-7.776 4.752v5.76h-4.248v-5.472z" fill="#6a737d" fill-rule="nonzero"/></svg>