<svg viewBox="0 0 100 100" fill-rule="evenodd" clip-rule="evenodd" stroke-linecap="round" stroke-linejoin="round" stroke-miterlimit="3" class="icon"><path d="M26.25 33.75c8.969.138 16.138 7.531 16 16.5-.138 8.969-7.531 16.138-16.5 16-8.969-.138-16.138-7.531-16-16.5.138-8.969 7.531-16.138 16.5-16zm-.062 4c6.762.103 12.167 5.677 12.063 12.438-.104 6.762-5.678 12.167-12.44 12.063-6.76-.104-12.166-5.678-12.062-12.44.104-6.76 5.678-12.166 12.44-12.062z" fill="#6a737d"/><g fill="#6a737d"><path d="M13.54 58.945c2.606-3.089 7.416-5.122 12.882-5.038 5.25.081 9.834 2.095 12.413 5.06-2.723 3.476-7.492 5.744-12.88 5.66-5.199-.08-9.754-2.328-12.415-5.682z"/><path d="M13.54 58.945c2.606-3.089 7.416-5.122 12.882-5.038 5.25.081 9.834 2.095 12.413 5.06-2.723 3.476-7.492 5.744-12.88 5.66-5.199-.08-9.754-2.328-12.415-5.682zm15.872.302a15.764 15.764 0 00-3.067-.34 15.958 15.958 0 00-3.42.306 13.14 13.14 0 003.107.415 13.12 13.12 0 003.38-.38z"/></g><g transform="matrix(.4084 .0063 -.0063 .4084 -25.316 .192)" fill="#6a737d"><circle cx="127.5" cy="107.5" r="12.5"/><path d="M127.5 95c6.899 0 12.5 5.601 12.5 12.5s-5.601 12.5-12.5 12.5-12.5-5.601-12.5-12.5S120.601 95 127.5 95zm0 14.69a2.19 2.19 0 11.001-4.381 2.19 2.19 0 01-.001 4.381z"/></g><path d="M100 25.794A6.797 6.797 0 0093.207 19H6.793A6.795 6.795 0 000 25.794v48.413a6.797 6.797 0 006.793 6.794h86.414A6.795 6.795 0 00100 74.207V25.794zm-4 0v48.413a2.79 2.79 0 01-2.793 2.794H6.793A2.793 2.793 0 014 74.207V25.794A2.79 2.79 0 016.793 23h86.414A2.793 2.793 0 0196 25.794z" fill="#6a737d"/><g><path d="M56 36h34M56 50h34M56 64h34" fill="none" stroke="#6a737d" stroke-width="5"/></g><g><path fill="none" d="M0 0h100v100H0z"/></g></svg>