<svg viewBox="0 0 100 100" fill-rule="evenodd" clip-rule="evenodd" stroke-linecap="round" stroke-linejoin="round" stroke-miterlimit="3" class="icon"><path d="M100 25.714A6.718 6.718 0 0093.286 19H6.714A6.718 6.718 0 000 25.714v48.572A6.718 6.718 0 006.714 81h86.572A6.718 6.718 0 00100 74.286V25.714zm-4-.358c0-1.3-1.056-2.355-2.356-2.355H6.356A2.357 2.357 0 004 25.356v49.289c0 1.3 1.056 2.356 2.356 2.356h87.288c1.3 0 2.356-1.056 2.356-2.356V25.356z" fill="#6a737d"/><path d="M56 36h34M56 50h34M56 64h34" fill="none" stroke="#6a737d" stroke-width="5"/><g fill="#6a737d"><path d="M26.25 33.75c8.969.138 16.138 7.531 16 16.5-.138 8.969-7.531 16.138-16.5 16-8.969-.138-16.138-7.531-16-16.5.138-8.969 7.531-16.138 16.5-16zm10.32 23.204a12.626 12.626 0 002.204-6.956c.108-7.007-5.493-12.783-12.5-12.891-7.007-.108-12.783 5.493-12.891 12.5-.043 2.75.794 5.31 2.25 7.413 2.727-1.977 6.562-3.178 10.789-3.113 3.949.061 7.522 1.216 10.148 3.047zM26.157 39.79A5.107 5.107 0 0126 50a5.107 5.107 0 01-5.026-5.183 5.108 5.108 0 015.183-5.027z"/><path d="M26.25 33.75c8.969.138 16.138 7.531 16 16.5-.138 8.969-7.531 16.138-16.5 16-8.969-.138-16.138-7.531-16-16.5.138-8.969 7.531-16.138 16.5-16zm7.21 25.966c-1.945-1.113-4.416-1.768-7.099-1.809-2.939-.045-5.648.65-7.699 1.902a12.187 12.187 0 007.15 2.441 12.187 12.187 0 007.648-2.534zm3.11-2.762a12.626 12.626 0 002.204-6.956c.108-7.007-5.493-12.783-12.5-12.891-7.007-.108-12.783 5.493-12.891 12.5-.043 2.75.794 5.31 2.25 7.413 2.727-1.977 6.562-3.178 10.789-3.113 3.949.061 7.522 1.216 10.148 3.047zM26.157 39.79A5.107 5.107 0 0126 50a5.107 5.107 0 01-5.026-5.183 5.108 5.108 0 015.183-5.027zm-.061 4a1.105 1.105 0 11-.035 2.21 1.105 1.105 0 01.035-2.21z"/></g></svg>