<svg viewBox="0 0 100 100" xmlns="http://www.w3.org/2000/svg" fill-rule="evenodd" clip-rule="evenodd" stroke-linejoin="round" stroke-miterlimit="2" class="icon"><path d="M17.078 35h16.945v6h61.953v4H66.023l4 50h-3l-2-16h-30l-2 16h-3l4-50h-30v-4h13l.055-6zm17.945 40l2-30h26l2 30h-30zm12-70h7v2h-7.047l.047-2z" fill="#6a737d"/><path d="M17.078 35h16.945v6h61.953v4H66.023l4 50h-3l-2-16h-30l-2 16h-3l4-50h-30v-4h13l.055-6zm17.945 40l2-30h26l2 30h-30zM21.041 39l-.018 2h9v-2h-8.982zM47.023 5h7v2h-7.047l.047-2z" fill="#6a737d"/><path d="M50 7l38.023 34h2L50 7zM50 7l14.023 34h2L50 7zM6.023 41h2L50 7 6.023 41z" fill="#6a737d"/><path d="M26.023 35v-9h43.988v15h-2.988V29h-38v6h-3zM26.023 26l21-19H50L30.023 26h-4zM87.99 66l2.105 2.088-2.087 2.105-2.105-2.088z" fill="#6a737d"/><path fill="#6a737d" d="M87.99 66l2.105 2.088-2.087 2.105-2.105-2.088zM88 45v21l2-21h-2z"/></svg>