<svg viewBox="0 0 100 100" xmlns="http://www.w3.org/2000/svg" fill-rule="evenodd" clip-rule="evenodd" stroke-linejoin="round" stroke-miterlimit="2" class="icon"><path d="M0 0v100h100V0H0zm4 4v92h92V4H4z" fill="#6a737d"/><path d="M8 8v84h84V8H8zm4 4v76h76V12H12z" fill="#6a737d"/><path d="M88.586 91.414l7 7a2 2 0 102.828-2.828l-7-7a2 2 0 10-2.828 2.828zm-84.172 7l7-7a2 2 0 10-2.828-2.828l-7 7a2 2 0 102.828 2.828zM18.172 30l-9.586-9.586a2 2 0 112.828-2.828l71 71a2 2 0 11-2.828 2.828L62.164 73.993A1.784 1.784 0 0162 74H10a2 2 0 010-4h48.172L42.164 53.993A1.784 1.784 0 0142 54H10a2 2 0 010-4h28.172l-16-16H10a2 2 0 010-4h8.172zm67.656 44l5.586 5.586a2 2 0 11-2.828 2.828l-71-71a2 2 0 112.828-2.828L41.828 30H90a2 2 0 010 4H45.828l17 17H90a2 2 0 010 4H66.828l15 15H90a2 2 0 010 4h-4.172zm9.758-72.414l-7 7a2 2 0 102.828 2.828l7-7a2 2 0 10-2.828-2.828zm-94 2.828l7 7a2 2 0 102.828-2.828l-7-7a2 2 0 10-2.828 2.828z" fill="#6a737d"/><circle cx="159.5" cy="160.5" r="1.5" fill="#6a737d" transform="translate(-77.5 -78.5)"/><circle cx="159.5" cy="160.5" r="1.5" fill="#6a737d" transform="translate(-143.5 -144.5)"/></svg>