<svg viewBox="0 0 100 100" fill-rule="evenodd" clip-rule="evenodd" stroke-linecap="round" stroke-miterlimit="2" class="icon"><path d="M0 0v100h100V0H0zm4 4v92h92V4H4z" fill="#6a737d"/><path fill="none" stroke="#6a737d" stroke-width="2.17" d="M107 106h43v44h-43z" transform="matrix(1.86047 0 0 1.81818 -189.07 -182.727)"/><path d="M3 97l7-7m80 0l7 7m0-94l-7 7M3 3l7 7m71 80L10 19m80 62L19 10m-9 42h32M10 72h52M41 32h49M62 53h28m-9 19h9M10 32h13" fill="none" stroke="#6a737d" stroke-width="4" stroke-linejoin="round" stroke-miterlimit="3"/><circle cx="159.5" cy="160.5" r="1.5" fill="#6a737d" transform="translate(-77.5 -78.5)"/><circle cx="159.5" cy="160.5" r="1.5" fill="#6a737d" transform="translate(-143.5 -144.5)"/></svg>