<svg viewBox="0 0 100 100" fill-rule="evenodd" clip-rule="evenodd" stroke-linecap="round" stroke-linejoin="round" stroke-miterlimit="3" class="icon"><path d="M179 105.369c0-1.424-.738-2.79-2.051-3.797-1.313-1.006-3.094-1.572-4.951-1.572H87.002c-1.857 0-3.638.566-4.951 1.572-1.313 1.007-2.051 2.373-2.051 3.797v38.262c0 1.424.738 2.79 2.051 3.797 1.313 1.006 3.094 1.572 4.951 1.572h84.996c1.857 0 3.638-.566 4.951-1.572 1.313-1.007 2.051-2.373 2.051-3.797v-38.262z" fill="none" stroke="#6a737d" stroke-width="3.55" transform="matrix(.9701 0 0 1.26531 -75.608 -107.53)"/><path fill="#6a737d" d="M2.96 33H99v12H2.96z"/></svg>