<svg viewBox="0 0 100 100" fill-rule="evenodd" clip-rule="evenodd" stroke-linecap="round" stroke-linejoin="round" stroke-miterlimit="3" class="icon"><path d="M146.922 78H97.078C86.548 78 78 86.548 78 97.078v61.844C78 169.452 86.548 178 97.078 178h61.844c10.53 0 19.078-8.548 19.078-19.078v-57.844" fill="none" stroke="#6a737d" stroke-width="4.63" transform="matrix(.87206 0 0 .85665 -66.02 -54.483)"/><path d="M91.218 13.252L51.296 51.9s-2.653-.79-3.618-1.752c-1.84-1.831-1.816-3.582-1.816-3.582L85.822 7.88s.02.935 1.798 2.867c2.21 2.401 3.598 2.505 3.598 2.505zm-4.656-6.087S86.5 8.29 88.326 10.03c2.636 2.513 3.69 2.45 3.69 2.45l4.833-4.68a3.828 3.828 0 00-.296-5.762l-.002-.001a3.772 3.772 0 00-4.956.254l-5.033 4.874z" fill="#6a737d"/><path d="M50.844 52.464L43.9 54.823a1.093 1.093 0 01-1.34-1.51l2.93-6.102s.01 1.577 1.209 2.922c1.491 1.674 4.145 2.33 4.145 2.33z" fill="#6a737d"/></svg>