<svg viewBox="0 0 100 100" fill-rule="evenodd" clip-rule="evenodd" stroke-linejoin="round" stroke-miterlimit="2" class="icon"><path d="M62.104 10.335H18.637C8.341 10.335 0 18.564 0 28.678v52.979C0 91.77 8.34 100 18.637 100H72.57c10.297 0 18.637-8.229 18.637-18.343V32.105a2 2 0 00-4 0v49.552C87.207 89.583 80.639 96 72.57 96H18.637C10.568 96 4 89.583 4 81.657V28.678c0-7.926 6.568-14.343 14.637-14.343h43.467a2.001 2.001 0 000-4z" fill="#6a737d"/><path d="M91.218 13.252L51.296 51.9s-2.653-.79-3.618-1.752c-1.84-1.831-1.816-3.582-1.816-3.582L85.822 7.88s.02.935 1.798 2.867c2.21 2.401 3.598 2.505 3.598 2.505zm-4.656-6.087S86.5 8.29 88.326 10.03c2.636 2.513 3.69 2.45 3.69 2.45l4.833-4.68a3.828 3.828 0 00-.296-5.762l-.002-.001a3.772 3.772 0 00-4.956.254l-5.033 4.874z" fill="#6a737d"/><path d="M50.844 52.464L43.9 54.823a1.093 1.093 0 01-1.34-1.51l2.93-6.102s.01 1.577 1.209 2.922c1.491 1.674 4.145 2.33 4.145 2.33z" fill="#6a737d"/></svg>