<svg viewBox="0 0 101 102" fill-rule="evenodd" clip-rule="evenodd" stroke-linecap="round" stroke-linejoin="round" stroke-miterlimit="3" class="icon"><path d="M62.247 12.587h-43.57C9.472 12.587 2 20.059 2 29.263v54.06C2 92.528 9.472 100 18.677 100h54.06c9.204 0 16.676-7.472 16.676-16.677V32.76" fill="none" stroke="#6a737d" stroke-width="4.0035153999999995"/><path d="M91.429 13.523L51.413 52.959s-2.659-.806-3.627-1.788c-1.844-1.868-1.82-3.655-1.82-3.655L86.02 8.041s.02.954 1.803 2.925c2.216 2.45 3.606 2.557 3.606 2.557zM86.762 7.31s-.061 1.149 1.768 2.924c2.643 2.564 3.7 2.5 3.7 2.5L97.134 7.9a3.866 3.866 0 00-.297-5.772l-.004-.002a3.825 3.825 0 00-5.076.262L86.762 7.31z" fill="#6a737d"/><path d="M50.96 53.534l-6.977 2.413a1.095 1.095 0 01-1.347-1.501l2.957-6.272s.01 1.61 1.211 2.982c1.496 1.708 4.156 2.378 4.156 2.378z" fill="#6a737d"/></svg>