<svg viewBox="0 0 100 100" xmlns="http://www.w3.org/2000/svg" fill-rule="evenodd" clip-rule="evenodd" stroke-linejoin="round" stroke-miterlimit="2" class="icon"><path d="M60.426 4H10.195A5.195 5.195 0 005 9.195v81.61A5.195 5.195 0 0010.195 96h32.583c1.33 0 2.608-.51 3.572-1.423l20.097-19.03a2 2 0 012.75 2.905l-20.096 19.03A9.193 9.193 0 0142.778 100H10.195A9.192 9.192 0 011 90.805V9.195A9.195 9.195 0 0110.195 0h57.45a2 2 0 011.028 3.715L41.322 20.132V38a2 2 0 01-4 0V19a2 2 0 01.971-1.715L60.426 4z" fill="#6a737d"/><path d="M86.973 45l-8.211-13.436a3.002 3.002 0 01.996-4.124 3.002 3.002 0 014.124.996l11.867 19.418-11.744 23.488a3 3 0 01-5.366-2.684L87.468 51H43.322a3.001 3.001 0 010-6h43.651z" fill="#6a737d"/></svg>