<svg viewBox="0 0 100 100" xmlns="http://www.w3.org/2000/svg" fill-rule="evenodd" clip-rule="evenodd" stroke-linejoin="round" stroke-miterlimit="2" class="icon"><g fill="#6a737d"><path d="M96 96V32.72a2 2 0 014 0V98c0 1.105-.895 2-2 2H2c-1.105 0-2-.895-2-2V2C0 .895.895 0 2 0h45.12a2 2 0 010 4H4v92h92z"/><path d="M96 4H51.92a2 2 0 010-4H98c1.105 0 2 .895 2 2v21.12a2 2 0 01-4 0V4zM32.72 78.88H74a2 2 0 000-4H32.72a2 2 0 000 4z"/><path d="M24.16 55.84v39.28a2 2 0 01-4 0V51.84h67.36v43.28a2 2 0 01-4 0V55.84H24.16zM73.92 33.6V3.92a2 2 0 014 0V37.6h-47.2V3.92a2 2 0 014 0V33.6h39.2zM55.68 6.72v23.2h13.6V6.72h-13.6zm4 4v15.2h5.6v-15.2h-5.6zm-46.16 14.4h9.6a2 2 0 000-4h-9.6a2 2 0 000 4zm0-9.6h9.6a2 2 0 000-4h-9.6a2 2 0 000 4z" stroke="#6a737d" stroke-width=".9984"/></g></svg>