<svg viewBox="0 0 100 100" fill-rule="evenodd" clip-rule="evenodd" stroke-linejoin="round" stroke-miterlimit="2" class="icon"><path d="M48 8.387C48 3.76 44.241 0 39.612 0H8.387C3.758 0 0 3.76 0 8.387v32.206c0 4.628 3.758 8.387 8.387 8.387h31.225c4.63 0 8.388-3.759 8.388-8.387V8.387zm-4 0v32.206a4.39 4.39 0 01-4.388 4.387H8.387A4.39 4.39 0 014 40.593V8.387A4.39 4.39 0 018.387 4h31.225A4.39 4.39 0 0144 8.387zM48 59.408c0-4.629-3.759-8.387-8.388-8.387H8.387C3.758 51.02 0 54.779 0 59.408v32.205C0 96.242 3.758 100 8.387 100h31.225c4.63 0 8.388-3.758 8.388-8.387V59.408zm-4 0v32.205a4.39 4.39 0 01-4.388 4.388H8.387A4.39 4.39 0 014 91.613V59.408a4.39 4.39 0 014.387-4.388h31.225A4.39 4.39 0 0144 59.408zM100 59.408c0-4.629-3.759-8.387-8.388-8.387H60.387c-4.629 0-8.387 3.758-8.387 8.387v32.205c0 4.629 3.758 8.387 8.387 8.387h31.225c4.63 0 8.388-3.758 8.388-8.387V59.408zm-4 0v32.205a4.39 4.39 0 01-4.388 4.388H60.387A4.39 4.39 0 0156 91.613V59.408a4.39 4.39 0 014.387-4.388h31.225A4.39 4.39 0 0196 59.408zM100 8.387C100 3.76 96.241 0 91.612 0H60.387C55.758 0 52 3.76 52 8.387v32.206c0 4.628 3.758 8.387 8.387 8.387h31.225c4.63 0 8.388-3.759 8.388-8.387V8.387zm-4 0v32.206a4.39 4.39 0 01-4.388 4.387H60.387A4.39 4.39 0 0156 40.593V8.387A4.39 4.39 0 0160.387 4h31.225A4.39 4.39 0 0196 8.387z" fill="#6a737d"/></svg>