<svg viewBox="0 0 104 103" fill-rule="evenodd" clip-rule="evenodd" stroke-linecap="round" stroke-linejoin="round" stroke-miterlimit="1.5" class="icon"><path d="M58.388 2.417a49.952 49.952 0 00-12.88 0l-1.405 11.361a39.039 39.039 0 00-10.713 3.9l-8.38-7.8a49.985 49.985 0 00-9.867 8.278l6.227 9.608a39.014 39.014 0 00-5.7 9.873l-11.433-.589A49.969 49.969 0 002 49.732l10.945 3.357a39.02 39.02 0 001.98 11.227l-9.137 6.899a50.01 50.01 0 006.44 11.154l10.543-4.464a38.977 38.977 0 008.732 7.327l-2.565 11.159a50.016 50.016 0 0012.103 4.405L46.248 90.6c3.78.557 7.621.557 11.4 0l5.208 10.196a50.016 50.016 0 0012.102-4.405l-2.565-11.159a38.977 38.977 0 008.733-7.327l10.543 4.464a50.01 50.01 0 006.44-11.154l-9.137-6.9a39.02 39.02 0 001.98-11.226l10.945-3.357a49.969 49.969 0 00-2.237-12.684l-11.433.589a39.014 39.014 0 00-5.7-9.873l6.226-9.608a49.985 49.985 0 00-9.866-8.278l-8.38 7.8a39.039 39.039 0 00-10.713-3.9L58.388 2.417zm-6.44 18.4c17.21 0 31.183 13.973 31.183 31.183S69.158 83.182 51.948 83.182 20.766 69.21 20.766 52s13.972-31.182 31.182-31.182z" fill="#6a737d" stroke="#6a737d" stroke-width="3.999984"/></svg>