<svg viewBox="0 0 100 100" xmlns="http://www.w3.org/2000/svg" fill-rule="evenodd" clip-rule="evenodd" stroke-linecap="round" stroke-linejoin="round" stroke-miterlimit="1.5" class="icon"><path d="M56.182 2.978a47.954 47.954 0 00-12.364 0l-1.35 10.907c-3.593.738-7.058 2-10.284 3.743l-8.045-7.488a47.986 47.986 0 00-9.472 7.948l5.978 9.224a37.454 37.454 0 00-5.472 9.477l-10.976-.565A47.97 47.97 0 002.05 48.4l10.507 3.224a37.459 37.459 0 001.9 10.777l-8.771 6.623a48.01 48.01 0 006.182 10.708l10.122-4.285a37.418 37.418 0 008.383 7.034L27.91 93.193a48.015 48.015 0 0011.619 4.229l4.999-9.788c3.628.535 7.316.535 10.944 0l5 9.788a48.015 48.015 0 0011.618-4.229l-2.463-10.712a37.418 37.418 0 008.383-7.034l10.122 4.285a48.01 48.01 0 006.182-10.708l-8.772-6.623a37.459 37.459 0 001.901-10.777L97.95 48.4a47.97 47.97 0 00-2.147-12.176l-10.976.565a37.454 37.454 0 00-5.472-9.477l5.978-9.224a47.986 47.986 0 00-9.472-7.948l-8.045 7.488a37.477 37.477 0 00-10.284-3.743l-1.35-10.907zM50 20.643c16.522 0 29.935 13.413 29.935 29.935S66.522 80.513 50 80.513 20.065 67.1 20.065 50.578 33.478 20.643 50 20.643z" fill="#6a737d" stroke="#6a737d" stroke-width="4"/></svg>