<svg viewBox="0 0 100 100" fill-rule="evenodd" clip-rule="evenodd" stroke-linecap="round" stroke-linejoin="round" stroke-miterlimit="1.5" class="icon"><path d="M56.44.417a49.952 49.952 0 00-12.88 0l-1.406 11.361a39.039 39.039 0 00-10.712 3.9l-8.38-7.8a49.985 49.985 0 00-9.867 8.278l6.227 9.608a39.014 39.014 0 00-5.7 9.873l-11.434-.589A49.969 49.969 0 00.052 47.732l10.945 3.357a39.02 39.02 0 001.98 11.227l-9.138 6.899a50.01 50.01 0 006.44 11.154l10.543-4.464a38.977 38.977 0 008.733 7.327L26.99 94.391a50.016 50.016 0 0012.102 4.405L44.3 88.6c3.78.557 7.62.557 11.4 0l5.207 10.196A50.016 50.016 0 0073.01 94.39l-2.565-11.159a38.977 38.977 0 008.732-7.327l10.544 4.464a50.01 50.01 0 006.44-11.154l-9.138-6.9a39.02 39.02 0 001.98-11.226l10.945-3.357a49.969 49.969 0 00-2.236-12.684l-11.434.589a39.014 39.014 0 00-5.7-9.873l6.227-9.608a49.985 49.985 0 00-9.867-8.278l-8.38 7.8a39.039 39.039 0 00-10.712-3.9L56.44.417zM50 18.817c17.21 0 31.182 13.973 31.182 31.183S67.21 81.182 50 81.182 18.817 67.21 18.817 50 32.79 18.818 50 18.818z" fill="#6a737d" stroke="#6a737d" stroke-width="3.999984"/></svg>