<svg viewBox="0 0 100 100" xmlns="http://www.w3.org/2000/svg" fill-rule="evenodd" clip-rule="evenodd" stroke-linejoin="round" stroke-miterlimit="2" class="icon"><path d="M6 94h89a2.001 2.001 0 010 4H4a2 2 0 01-2-2V7.5a2.001 2.001 0 014 0V94z" fill="#6a737d"/><path d="M4 0l4 8H0l4-8zM100 96l-8 4v-8l8 4zM48.762 63.784l9.281-44.195a2 2 0 013.746-.483l8.759 17.518 18.038-18.038a2 2 0 112.828 2.828l-20 20a1.998 1.998 0 01-3.203-.52l-7.433-14.866-9.321 44.383a2 2 0 01-3.764.447l-8.05-16.948-24.022 33.261a2 2 0 11-3.242-2.342l26-36a2 2 0 013.428.313l6.955 14.642z" fill="#6a737d"/></svg>