<svg viewBox="0 0 100 100" fill-rule="evenodd" clip-rule="evenodd" stroke-linejoin="round" stroke-miterlimit="2" class="icon"><path d="M47.114 63.906c1.512 0 2.808.504 3.888 1.584s1.584 2.448 1.584 4.032c0 1.44-.576 2.736-1.584 3.744-1.08 1.08-2.448 1.584-3.96 1.584-1.44 0-2.664-.576-3.672-1.584-1.08-1.08-1.584-2.376-1.584-3.96 0-1.512.504-2.736 1.584-3.816 1.008-1.08 2.304-1.584 3.744-1.584zm2.232-10.008v6.552h-4.68v-9.72c3.456-1.224 6.048-2.808 7.848-4.896 1.728-2.088 2.592-4.536 2.592-7.416 0-2.808-.792-5.04-2.52-6.696-1.656-1.584-3.96-2.376-6.84-2.376h-.216l-3.24 8.136c-.216 0-.36.072-.576.072h-.864c-1.728 0-3.024-.432-3.96-1.152-.864-.792-1.368-1.872-1.368-3.312 0-2.304 1.224-4.176 3.528-5.688 2.376-1.512 5.472-2.232 9.216-2.232 4.896 0 8.784 1.224 11.736 3.6 2.952 2.448 4.464 5.688 4.464 9.648 0 3.528-1.296 6.552-3.816 9.144-2.52 2.592-6.264 4.68-11.304 6.336z" fill="#6a737d" fill-rule="nonzero"/><path d="M100 19.078C100 8.548 91.452 0 80.922 0H19.078C8.548 0 0 8.548 0 19.078v61.844C0 91.452 8.548 100 19.078 100h61.844C91.452 100 100 91.452 100 80.922V19.078zm-4 0v61.844C96 89.244 89.244 96 80.922 96H19.078C10.756 96 4 89.244 4 80.922V19.078C4 10.756 10.756 4 19.078 4h61.844C89.244 4 96 10.756 96 19.078z" fill="#6a737d"/></svg>