<svg viewBox="0 0 100 100" xmlns="http://www.w3.org/2000/svg" fill-rule="evenodd" clip-rule="evenodd" stroke-linejoin="round" stroke-miterlimit="2" class="icon"><path d="M50 0L8.333 35l4 65h14.334V76.665a8.331 8.331 0 018.331-8.332h.004a8.331 8.331 0 018.331 8.332V100h44.334l4-65L50 0zm-2.667 96h36.572l3.645-59.233L50 5.224 12.45 36.767 16.095 96h6.572V76.665c0-6.81 5.52-12.332 12.331-12.332h.004c6.81 0 12.331 5.521 12.331 12.332V96zM56 54.165v.003C56 60.98 61.52 66.5 68.332 66.5h.003c6.81 0 12.332-5.52 12.332-12.332v-.003c0-6.81-5.521-12.332-12.332-12.332h-.003C61.52 41.833 56 47.354 56 54.165zm4 0a8.331 8.331 0 018.332-8.332h.003a8.331 8.331 0 018.332 8.332v.003a8.331 8.331 0 01-8.332 8.332h-.003A8.331 8.331 0 0160 54.168v-.003z" fill="#6a737d"/></svg>