<svg viewBox="0 0 100 100" xmlns="http://www.w3.org/2000/svg" fill-rule="evenodd" clip-rule="evenodd" stroke-linejoin="round" stroke-miterlimit="2" class="icon"><circle cx="97" cy="127" r="7" fill="#6a737d" transform="matrix(.96154 0 0 .96154 -62.5 -71.115)"/><path d="M30.77 44.27A6.734 6.734 0 0137.5 51a6.734 6.734 0 01-6.73 6.73A6.734 6.734 0 0124.037 51a6.734 6.734 0 016.731-6.73zm0 4A2.733 2.733 0 0133.5 51a2.733 2.733 0 01-2.73 2.73A2.733 2.733 0 0128.037 51a2.733 2.733 0 012.731-2.73z" fill="#6a737d"/><circle cx="97" cy="127" r="7" fill="#6a737d" transform="matrix(.96154 0 0 .96154 -43.27 -71.115)"/><path d="M50 44.27A6.734 6.734 0 0156.73 51 6.734 6.734 0 0150 57.73 6.734 6.734 0 0143.27 51 6.734 6.734 0 0150 44.27zm0 4A2.733 2.733 0 0152.73 51 2.733 2.733 0 0150 53.73 2.733 2.733 0 0147.27 51 2.733 2.733 0 0150 48.27z" fill="#6a737d"/><circle cx="97" cy="127" r="7" fill="#6a737d" transform="matrix(.96154 0 0 .96154 -24.038 -71.115)"/><path d="M69.23 44.27A6.734 6.734 0 0175.962 51a6.734 6.734 0 01-6.73 6.73A6.734 6.734 0 0162.5 51a6.734 6.734 0 016.73-6.73zm0 4A2.733 2.733 0 0171.962 51a2.733 2.733 0 01-2.73 2.73A2.733 2.733 0 0166.5 51a2.733 2.733 0 012.73-2.73z" fill="#6a737d"/><circle cx="97" cy="127" r="7" fill="#6a737d" transform="matrix(.96154 0 0 .96154 -62.5 -48.385)"/><path d="M30.77 67a6.734 6.734 0 016.73 6.73 6.734 6.734 0 01-6.73 6.731 6.734 6.734 0 01-6.732-6.73A6.734 6.734 0 0130.77 67zm0 4a2.733 2.733 0 012.73 2.73 2.733 2.733 0 01-2.73 2.731 2.733 2.733 0 01-2.732-2.73A2.733 2.733 0 0130.77 71z" fill="#6a737d"/><circle cx="97" cy="127" r="7" fill="#6a737d" transform="matrix(.96154 0 0 .96154 -43.27 -48.385)"/><path d="M50 67a6.734 6.734 0 016.73 6.73A6.734 6.734 0 0150 80.462a6.734 6.734 0 01-6.73-6.73A6.734 6.734 0 0150 67zm0 4a2.733 2.733 0 012.73 2.73A2.733 2.733 0 0150 76.462a2.733 2.733 0 01-2.73-2.73A2.733 2.733 0 0150 71z" fill="#6a737d"/><circle cx="97" cy="127" r="7" fill="#6a737d" transform="matrix(.96154 0 0 .96154 -24.038 -48.385)"/><path d="M69.23 67a6.734 6.734 0 016.731 6.73 6.734 6.734 0 01-6.73 6.731 6.734 6.734 0 01-6.731-6.73A6.734 6.734 0 0169.23 67zm0 4a2.733 2.733 0 012.731 2.73 2.733 2.733 0 01-2.73 2.731 2.733 2.733 0 01-2.731-2.73A2.733 2.733 0 0169.23 71z" fill="#6a737d"/><circle cx="97" cy="127" r="7" fill="#6a737d" transform="matrix(.96154 0 0 .96154 -62.5 -95.846)"/><path d="M30.77 19.538a6.734 6.734 0 016.73 6.731A6.734 6.734 0 0130.77 33a6.734 6.734 0 01-6.732-6.73 6.734 6.734 0 016.731-6.73zm0 4a2.733 2.733 0 012.73 2.731A2.733 2.733 0 0130.77 29a2.733 2.733 0 01-2.732-2.73 2.733 2.733 0 012.731-2.73z" fill="#6a737d"/><circle cx="97" cy="127" r="7" fill="#6a737d" transform="matrix(.96154 0 0 .96154 -43.27 -95.846)"/><path d="M50 19.538a6.734 6.734 0 016.73 6.731A6.734 6.734 0 0150 33a6.734 6.734 0 01-6.73-6.73A6.734 6.734 0 0150 19.54zm0 4a2.733 2.733 0 012.73 2.731A2.733 2.733 0 0150 29a2.733 2.733 0 01-2.73-2.73A2.733 2.733 0 0150 23.54z" fill="#6a737d"/><circle cx="97" cy="127" r="7" fill="#6a737d" transform="matrix(.96154 0 0 .96154 -24.038 -95.846)"/><path d="M69.23 19.538a6.734 6.734 0 016.731 6.731 6.734 6.734 0 01-6.73 6.73 6.734 6.734 0 01-6.731-6.73 6.734 6.734 0 016.73-6.73zm0 4a2.733 2.733 0 012.731 2.731 2.733 2.733 0 01-2.73 2.73 2.733 2.733 0 01-2.731-2.73 2.733 2.733 0 012.73-2.73z" fill="#6a737d"/></svg>