<svg viewBox="0 0 100 100" xmlns="http://www.w3.org/2000/svg" fill-rule="evenodd" clip-rule="evenodd" stroke-linejoin="round" stroke-miterlimit="2" class="icon"><path d="M0 23.733V10.187h21.232v79.626H0V77.361h21.232v-2.19H0v-44.87h21.232v-2.19H0v-2.189h21.232v-2.189H0zm4 57.628v4.453h13.232v-4.453H4zm13.232-38.645V34.3H4v36.872h13.232V52.906h-4.099a4 4 0 01-4-4v-2.19a4 4 0 014-4h4.099zm3.015 4h-7.114v2.19h7.114v-2.19zM4 14.187v5.547h13.232v-5.547H4zM95.223 71.386L100 81.111l-19.078 9.322-4.678-9.525 18.98-9.522zM81.581 82.704l1.17 2.383 11.891-5.81-1.231-2.506-11.83 5.933zM94.262 69.42l-18.98 9.52-29.316-60.052 19.078-9.32L94.262 69.42zm-15.39-22.41L63.205 14.917l-11.891 5.81 25.787 52.825 11.83-5.934-1.908-3.91-5.517 2.769a4 4 0 01-5.37-1.783l-4.744-9.458a4 4 0 011.783-5.37l5.695-2.856zM81.83 50l-6.862 3.442 4.744 9.46 6.862-3.443L81.831 50zM24.405 10.187h21.234v79.626H24.405v-63.89h21.232v-2.19H24.405V10.187zm4 19.735v55.892h13.234V29.922H28.405zm0-15.736v5.547h13.234v-5.547H28.405z" fill="#6a737d"/></svg>