<svg viewBox="0 0 100 104" fill-rule="evenodd" clip-rule="evenodd" stroke-linecap="round" stroke-linejoin="round" stroke-miterlimit="3" class="icon"><path d="M230 115.227c0-2.447-1.167-4.794-3.243-6.524-2.077-1.731-4.893-2.703-7.829-2.703h-37.856c-2.936 0-5.752.972-7.829 2.703-2.076 1.73-3.243 4.077-3.243 6.524v31.546c0 2.447 1.167 4.794 3.243 6.524 2.077 1.731 4.893 2.703 7.829 2.703h37.856c2.936 0 5.752-.972 7.829-2.703 2.076-1.73 3.243-4.077 3.243-6.524v-31.546z" fill="none" stroke="#6a737d" stroke-width="3.09" transform="matrix(1.1737 0 0 1.40845 -184.742 -118.127)"/><circle cx="124" cy="127" r="6" fill="none" stroke="#6a737d" stroke-width="1.92" transform="matrix(2.08334 0 0 2.08334 -208.333 -198.203)"/><path d="M50 62.38v8" fill="none" stroke="#6a737d" stroke-width="2"/><g><path d="M118 102.254c.048-20.265 1-20.281 12-20.281s11.85.473 12 20.281" fill="none" stroke="#6a737d" stroke-width="4.37" transform="matrix(1.40845 0 0 1.33968 -133.099 -106.818)"/></g><g><path fill="none" d="M0 1.592h100v100H0z"/></g></svg>