<svg viewBox="0 0 100 100" xmlns="http://www.w3.org/2000/svg" fill-rule="evenodd" clip-rule="evenodd" stroke-linejoin="round" stroke-miterlimit="2" class="icon"><path d="M87.21 43.138a14.994 14.994 0 00-14.995-14.996H27.784a14.994 14.994 0 00-14.995 14.996v41.865A14.994 14.994 0 0027.783 100h44.431A14.994 14.994 0 0087.21 85.004V43.137zm-4 0v41.865A10.994 10.994 0 0172.216 96H27.784a10.993 10.993 0 01-10.996-10.996V43.138a10.994 10.994 0 0110.996-10.995h44.431a10.993 10.993 0 0110.996 10.995z" fill="#6a737d"/><path d="M50 50.028c-8.023 0-14.5 6.313-14.5 14.044 0 7.73 6.477 14.044 14.5 14.044s14.5-6.314 14.5-14.044S58.023 50.028 50 50.028zm0 3.998c5.775 0 10.5 4.481 10.5 10.046 0 5.564-4.725 10.045-10.5 10.045s-10.5-4.48-10.5-10.045c0-5.565 4.725-10.046 10.5-10.046z" fill="#6a737d"/><path d="M49 60.217v7.708a1.001 1.001 0 002 0v-7.708a1.001 1.001 0 00-2 0z" fill="#6a737d"/><g><path d="M36.098 29.187c.02-7.642.135-12.992.717-16.739.423-2.72.917-4.39 2.237-5.278.894-.602 2.067-.824 3.55-.975C44.592 5.993 47.024 6 50 6c2.956 0 5.367.016 7.335.248 1.469.173 2.63.426 3.511 1.052 1.331.944 1.845 2.662 2.275 5.413.586 3.736.718 9.02.78 16.492a3.001 3.001 0 006-.05c-.079-9.54-.332-15.726-1.32-19.738-.852-3.463-2.273-5.6-4.266-7.013C61.491.402 57.075-.001 50-.001 42.96 0 38.533.286 35.7 2.192c-2.027 1.365-3.482 3.469-4.345 6.958-.992 4.005-1.232 10.255-1.258 20.02a3.003 3.003 0 002.992 3.01 3.002 3.002 0 003.008-2.993z" fill="#6a737d"/></g></svg>