<svg viewBox="0 0 100 100" fill-rule="evenodd" clip-rule="evenodd" stroke-linecap="round" stroke-linejoin="round" stroke-miterlimit="3" class="icon"><path d="M230 115.576c0-2.54-1.167-4.975-3.243-6.771-2.077-1.796-4.893-2.805-7.829-2.805h-37.856c-2.936 0-5.752 1.009-7.829 2.805-2.076 1.796-3.243 4.231-3.243 6.771v30.848c0 2.54 1.167 4.975 3.243 6.771 2.077 1.796 4.893 2.805 7.829 2.805h37.856c2.936 0 5.752-1.009 7.829-2.805 2.076-1.796 3.243-4.231 3.243-6.771v-30.848z" fill="none" stroke="#6a737d" stroke-width="3.15" transform="matrix(1.1737 0 0 1.35714 -184.742 -113.714)"/><circle cx="124" cy="127" r="6" fill="none" stroke="#6a737d" stroke-width="1.96" transform="matrix(2.08334 0 0 2.00744 -208.334 -190.873)"/><path d="M128 126v4" fill="none" stroke="#6a737d" stroke-width="1.02" transform="matrix(2 0 0 1.92714 -206 -182.603)"/><g><path d="M118 102.254c.048-20.265 1-20.281 12-20.281s11.85.473 12 20.281" fill="none" stroke="#6a737d" stroke-width="4.44" transform="matrix(1.40845 0 0 1.29087 -133.099 -102.817)"/></g></svg>