<svg viewBox="0 0 100 100" xmlns="http://www.w3.org/2000/svg" fill-rule="evenodd" clip-rule="evenodd" stroke-linejoin="round" stroke-miterlimit="2" class="icon"><path d="M31.178 59h4v31.805a5.19 5.19 0 001.522 3.673A5.19 5.19 0 0040.373 96h32.584a5.195 5.195 0 003.572-1.423l20.096-19.029a2.001 2.001 0 012.751 2.904l-20.097 19.03A9.195 9.195 0 0172.957 100H40.373a9.197 9.197 0 01-9.195-9.195V59zm0-22V9.195A9.195 9.195 0 0140.373 0h57.45a2 2 0 011.029 3.715L71.5 20.132V38a2 2 0 01-4 0V19c0-.702.369-1.353.971-1.715L90.604 4H40.373a5.195 5.195 0 00-5.195 5.195V37h-4z" fill="#6a737d"/><path d="M52.65 45l-8.21-13.436a3.002 3.002 0 01.996-4.124 3.002 3.002 0 014.124.996l11.867 19.418-11.744 23.488a3 3 0 01-5.366-2.684L53.146 51H9a3.001 3.001 0 010-6h43.65z" fill="#6a737d"/></svg>