<svg viewBox="0 0 100 100" xmlns="http://www.w3.org/2000/svg" fill-rule="evenodd" clip-rule="evenodd" stroke-linejoin="round" stroke-miterlimit="2" class="icon"><path d="M8.448 8.486v69.182a4.246 4.246 0 01-4.244 4.244A4.246 4.246 0 01-.04 77.668V4.242A4.246 4.246 0 014.204-.002H77.63a4.246 4.246 0 014.244 4.244 4.246 4.246 0 01-4.244 4.244H8.45z" fill="#1dc2b1"/><path d="M91.515 91.513V22.33a4.246 4.246 0 014.244-4.244 4.246 4.246 0 014.244 4.244v73.426A4.246 4.246 0 0195.76 100H22.334a4.246 4.246 0 01-4.244-4.244 4.246 4.246 0 014.244-4.244h69.181z" fill="#1dc2b1" fill-opacity=".6"/></svg>