<svg viewBox="0 0 165 75" xmlns="http://www.w3.org/2000/svg" fill-rule="evenodd" clip-rule="evenodd" stroke-linejoin="round" stroke-miterlimit="2" class="icon"><circle cx="24" cy="48" r="12" fill="#2f6963" fill-opacity=".4" transform="matrix(3.12499 0 0 3.12499 52.5 -112.5)"/><path d="M6.365 6.365V58.25a3.185 3.185 0 01-3.183 3.183A3.185 3.185 0 01-.001 58.25V3.182A3.185 3.185 0 013.182-.001H58.25a3.185 3.185 0 013.183 3.183 3.185 3.185 0 01-3.183 3.183H6.365z" fill="#2f6963"/><path d="M68.665 68.634V16.748a3.185 3.185 0 013.183-3.183 3.185 3.185 0 013.183 3.183v55.07A3.185 3.185 0 0171.848 75h-55.07a3.185 3.185 0 01-3.182-3.183 3.185 3.185 0 013.183-3.183h51.886z" fill="#2f6963" fill-opacity=".6"/></svg>