<svg viewBox="0 0 220 100" xmlns="http://www.w3.org/2000/svg" fill-rule="evenodd" clip-rule="evenodd" stroke-linejoin="round" stroke-miterlimit="2" class="icon"><circle cx="24" cy="48" r="12" fill="#1dc2b1" fill-opacity=".4" transform="translate(70.001 -150) scale(4.16665)"/><path d="M8.487 8.487v69.18a4.246 4.246 0 01-4.244 4.245 4.246 4.246 0 01-4.244-4.244V4.243A4.246 4.246 0 014.243-.001h73.425a4.246 4.246 0 014.244 4.244 4.246 4.246 0 01-4.244 4.244H8.487z" fill="#1dc2b1"/><path d="M91.554 91.513V22.332a4.246 4.246 0 014.244-4.244 4.246 4.246 0 014.244 4.244v73.425A4.246 4.246 0 0195.798 100H22.373a4.246 4.246 0 01-4.244-4.244 4.246 4.246 0 014.244-4.244h69.18z" fill="#1dc2b1" fill-opacity=".6"/></svg>