<svg viewBox="0 0 100 100" fill-rule="evenodd" clip-rule="evenodd" stroke-linejoin="round" stroke-miterlimit="2" class="icon"><path d="M48.735 0C75.1 0 96.508 21.407 96.508 47.774c0 26.366-21.407 47.773-47.773 47.773C22.368 95.547.96 74.14.96 47.774.961 21.407 22.368 0 48.735 0zm0 4.219c24.038 0 43.555 19.516 43.555 43.555 0 24.038-19.517 43.555-43.555 43.555-24.039 0-43.555-19.517-43.555-43.555 0-24.039 19.516-43.555 43.555-43.555z" fill="#6a737d"/><path d="M79.603 83.195l15.82 16.17a2.11 2.11 0 003.015-2.95l-15.82-16.169a2.109 2.109 0 10-3.015 2.95z" fill="#6a737d"/></svg>