<svg viewBox="0 0 100 100" xmlns="http://www.w3.org/2000/svg" fill-rule="evenodd" clip-rule="evenodd" stroke-linejoin="round" stroke-miterlimit="2" class="icon"><path d="M50 38.5c7.726 0 14 6.273 14 14s-6.274 14-14 14c-7.727 0-14-6.273-14-14s6.273-14 14-14zm0 4c5.519 0 10 4.48 10 10s-4.481 10-10 10c-5.52 0-10-4.48-10-10s4.48-10 10-10z" fill="#6a737d"/><path d="M4.34 53.984s20.407-18.47 45.661-18.483c24.628-.014 45.68 18.503 45.68 18.503a2 2 0 002.638-3.007S76.036 31.487 49.999 31.5c-26.727.014-48.34 19.515-48.34 19.515a2.001 2.001 0 002.682 2.968z" fill="#6a737d"/></svg>