<svg viewBox="0 0 100 100" fill-rule="evenodd" clip-rule="evenodd" stroke-linejoin="round" stroke-miterlimit="2" class="icon"><path d="M50.3 3.51c25.001 0 45.3 20.299 45.3 45.3 0 25.002-20.299 45.3-45.3 45.3C25.3 94.11 5 73.812 5 48.81 5 23.81 25.299 3.51 50.3 3.51zm0 4c22.794 0 41.3 18.506 41.3 41.3 0 22.794-18.506 41.3-41.3 41.3C27.506 90.11 9 71.604 9 48.81c0-22.794 18.506-41.3 41.3-41.3z" fill="#6a737d"/><path d="M79.57 82.398l15 15.333a2.001 2.001 0 002.859-2.797l-15-15.332a2 2 0 10-2.859 2.796z" fill="#6a737d"/></svg>