<?xml version="1.0" encoding="UTF-8" standalone="no"?>
<!DOCTYPE svg PUBLIC "-//W3C//DTD SVG 1.1//EN" "http://www.w3.org/Graphics/SVG/1.1/DTD/svg11.dtd">
<svg width="100%" height="100%" viewBox="0 0 100 100" version="1.1" xmlns="http://www.w3.org/2000/svg" xmlns:xlink="http://www.w3.org/1999/xlink" xml:space="preserve" xmlns:serif="http://www.serif.com/" style="fill-rule:evenodd;clip-rule:evenodd;stroke-linejoin:round;stroke-miterlimit:2;">
    <g transform="matrix(0.8,0,0,0.8,-50.8,-46)">
        <g id="Mail">
            <path d="M141.615,114.594C141.721,114.811 141.875,115.004 142.067,115.159C149.156,120.843 180.155,145.7 186.32,150.643C186.492,150.781 186.687,150.871 186.889,150.914C186.695,150.97 186.489,151 186.277,151L65.723,151C65.529,151 65.34,150.975 65.16,150.928C65.388,150.892 65.61,150.798 65.802,150.643L109.838,115.333L123.288,122.296C124.209,122.773 125.302,122.78 126.228,122.315L141.615,114.594ZM63.58,149.37C63.528,149.181 63.5,148.982 63.5,148.777L63.5,91.223C63.5,90.959 63.546,90.705 63.631,90.469C63.624,90.574 63.628,90.681 63.645,90.787C63.714,91.22 63.986,91.595 64.375,91.797L107.109,113.92L64.091,148.464C63.799,148.698 63.626,149.026 63.58,149.37ZM144.223,113.285L187.762,91.439C188.131,91.254 188.354,90.894 188.383,90.51C188.459,90.734 188.5,90.974 188.5,91.223L188.5,148.777C188.5,148.885 188.492,148.992 188.477,149.097C188.394,148.856 188.244,148.635 188.031,148.464L144.223,113.285ZM64.734,89.232C65.032,89.084 65.368,89 65.723,89L186.277,89C186.694,89 187.085,89.115 187.419,89.316C187.202,89.287 186.981,89.323 186.782,89.421C179.527,93.003 134.917,115.026 126.222,119.319C125.299,119.774 124.214,119.764 123.299,119.29C114.831,114.904 72.023,92.731 65.512,89.359C65.267,89.231 64.994,89.191 64.734,89.232Z" style="fill:rgb(106,115,125);"/>
        </g>
    </g>
</svg>
