<svg viewBox="0 0 100 100" xmlns="http://www.w3.org/2000/svg" fill-rule="evenodd" clip-rule="evenodd" stroke-linejoin="round" stroke-miterlimit="2" class="icon"><path d="M100 28.123C100 26.4 98.6 25 96.877 25H3.124A3.125 3.125 0 000 28.123v43.754C0 73.6 1.4 75 3.124 75h93.753C98.6 75 100 73.6 100 71.877V28.123zM4 29v42h92V29H4z" fill="#6a737d"/><path d="M35.877 45.316L2.121 28.796a2 2 0 111.758-3.592l40.215 19.679a13.775 13.775 0 0011.899.103l40.159-18.797a2 2 0 011.696 3.622L65.322 45.036l32.9 25.38a2.002 2.002 0 01.362 2.806 2.002 2.002 0 01-2.806.362l-34.532-26.64-3.557 1.665a17.777 17.777 0 01-15.353-.133l-2.376-1.162L3.163 73.627a2 2 0 01-2.326-3.254l35.04-25.057z" fill="#6a737d"/></svg>