<svg viewBox="0 0 100 100" xmlns="http://www.w3.org/2000/svg" fill-rule="evenodd" clip-rule="evenodd" stroke-linejoin="round" stroke-miterlimit="2" class="icon"><path d="M5.603 44.5v40.965a8.038 8.038 0 008.035 8.035H85.97a8.039 8.039 0 008.036-8.035V44.5a2.001 2.001 0 00-4.001 0v40.965A4.036 4.036 0 0185.97 89.5H13.638a4.033 4.033 0 01-4.035-4.035V44.5a2.001 2.001 0 00-4 0zM20.009 9.457c-1.128 0-2.807 1.502-2.807 1.502L2.486 24.972a7.972 7.972 0 00-2.456 5.24c-.127 2.22.036 4.968 1.448 6.381a8.66 8.66 0 0012.249 0l.577-.576a5.512 5.512 0 017.798 0c.153.151.305.304.46.459a8.825 8.825 0 0012.483 0l.46-.46a5.51 5.51 0 017.798 0l.46.46a8.825 8.825 0 0012.483 0l.46-.46a5.51 5.51 0 017.798 0l.46.46a8.825 8.825 0 0012.483 0l.46-.46a5.512 5.512 0 017.798 0l.578.577a8.66 8.66 0 0012.248 0c1.41-1.41 1.576-4.155 1.43-6.372a7.955 7.955 0 00-2.453-5.24c-4.406-4.22-14.7-14.022-14.7-14.022s-1.68-1.502-2.807-1.502H20.009zm60.12 4.476l-.677-.475H20.558l-.679.475L5.244 27.869a3.944 3.944 0 00-1.22 2.573c-.048.815-.056 1.729.091 2.567.05.281.018.582.192.755v.001a4.665 4.665 0 006.591 0l.577-.578c3.717-3.715 9.741-3.715 13.456 0l.46.46a4.827 4.827 0 006.826 0l.46-.46a9.518 9.518 0 0113.455 0l.46.46a4.827 4.827 0 006.826 0l.46-.46a9.518 9.518 0 0113.455 0l.46.46a4.827 4.827 0 006.826 0l.46-.46c3.715-3.715 9.739-3.715 13.455 0l.577.578a4.665 4.665 0 006.591 0v-.001c.172-.17.14-.467.188-.744.145-.83.134-1.732.08-2.535a3.969 3.969 0 00-1.229-2.615 9859.766 9859.766 0 00-14.612-13.937z" fill="#6a737d"/></svg>