<svg viewBox="0 0 100 100" xmlns="http://www.w3.org/2000/svg" fill-rule="evenodd" clip-rule="evenodd" stroke-linejoin="round" stroke-miterlimit="2" class="icon"><path d="M100 50c0-27.596-22.404-50-50-50S0 22.404 0 50s22.404 50 50 50 50-22.404 50-50zm-4 0c0 25.388-20.612 46-46 46S4 75.388 4 50 24.612 4 50 4s46 20.612 46 46z" fill="#6a737d"/><ellipse cx="108.5" cy="130" rx="8.5" ry="10" fill="#6a737d" transform="matrix(.58823 0 0 .5 -41.824 -15)"/><path d="M22 43c-3.864 0-7 3.136-7 7s3.136 7 7 7 7-3.136 7-7-3.136-7-7-7zm0 4c1.656 0 3 1.344 3 3s-1.344 3-3 3-3-1.344-3-3 1.344-3 3-3z" fill="#6a737d"/><ellipse cx="108.5" cy="130" rx="8.5" ry="10" fill="#6a737d" transform="matrix(.58823 0 0 .5 14.177 -15)"/><path d="M78 43c-3.864 0-7 3.136-7 7s3.136 7 7 7 7-3.136 7-7-3.136-7-7-7zm0 4c1.656 0 3 1.344 3 3s-1.344 3-3 3-3-1.344-3-3 1.344-3 3-3z" fill="#6a737d"/><ellipse cx="108.5" cy="130" rx="8.5" ry="10" fill="#6a737d" transform="matrix(.58823 0 0 .5 -13.823 -15)"/><path d="M50 43c-3.864 0-7 3.136-7 7s3.136 7 7 7 7-3.136 7-7-3.136-7-7-7zm0 4c1.656 0 3 1.344 3 3s-1.344 3-3 3-3-1.344-3-3 1.344-3 3-3z" fill="#6a737d"/></svg>