<svg viewBox="0 0 100 100" xmlns="http://www.w3.org/2000/svg" fill-rule="evenodd" clip-rule="evenodd" stroke-linejoin="round" stroke-miterlimit="2" class="icon"><path d="M32.558 81.058A17.444 17.444 0 0049.999 98.5h.002a17.442 17.442 0 0017.441-17.442h-4A13.44 13.44 0 0150.002 94.5h-.002a13.442 13.442 0 01-13.442-13.442h-4zM48 9.957V3.5a2 2 0 014 0v6.457c12.962 1.018 23.164 11.86 23.164 25.084v10.166c0 4.054 1.2 8.016 3.448 11.388l7.845 11.769a5.678 5.678 0 01-4.724 8.828H18.267a5.68 5.68 0 01-4.724-8.828l7.845-11.769a20.529 20.529 0 003.448-11.388V35.041c0-13.225 10.202-24.066 23.164-25.084zm2.001 3.921h-.003c-11.687 0-21.162 9.475-21.162 21.163v10.166c0 4.843-1.433 9.578-4.12 13.607L16.87 70.583a1.68 1.68 0 001.397 2.61h63.466a1.68 1.68 0 001.397-2.61l-7.847-11.769a24.532 24.532 0 01-4.12-13.607V35.041c0-11.688-9.474-21.163-21.162-21.163z" fill="#6a737d"/></svg>