<svg viewBox="0 0 100 104" fill-rule="evenodd" clip-rule="evenodd" stroke-linecap="round" stroke-linejoin="round" stroke-miterlimit="3" class="icon"><path d="M28.857 28.786h33.857m6.143 0H76M28.714 43.07h20.429m4.714 0h11.429m5.714 0h5M28.714 28.786h1.143m-1.143 28.571h5.143m6.429 0H76M28.714 71.643h15.143m0 0H61m5 0h10M28.714 85.929H67.43m4.285 0H76M21.714 17.357h30m13.715 0h11.857" fill="none" stroke="#6a737d" stroke-width="4.000024"/><circle cx="92" cy="83" r="1" fill="#6a737d" stroke="#6a737d" stroke-width="5.6" transform="matrix(.71429 0 0 .71429 -44.286 -30.5)"/><circle cx="92" cy="83" r="1" fill="#6a737d" stroke="#6a737d" stroke-width="5.6" transform="matrix(.71429 0 0 .71429 -44.286 -16.214)"/><circle cx="92" cy="83" r="1" fill="#6a737d" stroke="#6a737d" stroke-width="5.6" transform="matrix(.71429 0 0 .71429 -44.286 -1.929)"/><circle cx="92" cy="83" r="1" fill="#6a737d" stroke="#6a737d" stroke-width="5.6" transform="matrix(.71429 0 0 .71429 -44.286 12.357)"/><circle cx="92" cy="83" r="1" fill="#6a737d" stroke="#6a737d" stroke-width="5.6" transform="matrix(.71429 0 0 .71429 -44.286 26.643)"/><path d="M85.714 9.195v85.61A7.196 7.196 0 0178.52 102H21.481a7.195 7.195 0 01-7.195-7.195V9.195A7.195 7.195 0 0121.48 2h57.038a7.195 7.195 0 017.195 7.195z" fill="none" stroke="#6a737d" stroke-width="4.000024"/><g><path fill="none" d="M0 2h100v100H0z"/></g></svg>