<svg viewBox="0 0 100 100" fill-rule="evenodd" clip-rule="evenodd" stroke-linecap="round" stroke-linejoin="round" stroke-miterlimit="3" class="icon"><path d="M104 90h47.4m8.6 0h10m-66.2 20h28.6m6.6 0h16m8 0h7m-66.2-20h1.6m-1.6 40h7.2m9 0h50m-66.2 20H125m0 0h24m7 0h14m-66.2 20H158m6 0h6M94 74h42m19.2 0h16.6" fill="none" stroke="#6a737d" stroke-width="5.71" transform="matrix(.71429 0 0 .68571 -45.429 -34)"/><circle cx="92" cy="83" r="1" fill="#6a737d" stroke="#6a737d" stroke-width="5.71" transform="matrix(.71429 0 0 .68571 -44.286 -29.2)"/><circle cx="92" cy="83" r="1" fill="#6a737d" stroke="#6a737d" stroke-width="5.71" transform="matrix(.71429 0 0 .68571 -44.286 -15.486)"/><circle cx="92" cy="83" r="1" fill="#6a737d" stroke="#6a737d" stroke-width="5.71" transform="matrix(.71429 0 0 .68571 -44.286 -1.771)"/><circle cx="92" cy="83" r="1" fill="#6a737d" stroke="#6a737d" stroke-width="5.71" transform="matrix(.71429 0 0 .68571 -44.286 11.943)"/><circle cx="92" cy="83" r="1" fill="#6a737d" stroke="#6a737d" stroke-width="5.71" transform="matrix(.71429 0 0 .68571 -44.286 25.657)"/><path d="M178 68.493v119.014c0 5.795-4.51 10.493-10.073 10.493H88.073C82.51 198 78 193.302 78 187.507V68.493C78 62.698 82.51 58 88.073 58h79.854C173.49 58 178 62.698 178 68.493z" fill="none" stroke="#6a737d" stroke-width="5.71" transform="matrix(.71429 0 0 .68571 -41.429 -37.771)"/></svg>