<svg viewBox="0 0 100 100" fill-rule="evenodd" clip-rule="evenodd" stroke-linejoin="round" stroke-miterlimit="2" class="icon"><path d="M28.714 84.572H67.43a2.001 2.001 0 000-4H28.714a2.001 2.001 0 000 4zm43 0H76a2.001 2.001 0 000-4h-4.286a2.001 2.001 0 000 4zm-43-13.715a2.001 2.001 0 010-4H61a2.001 2.001 0 010 4H28.714zm37.286 0h10a2.001 2.001 0 000-4H66a2.001 2.001 0 000 4zM28.714 57.143h5.143a2.001 2.001 0 000-4h-5.143a2.001 2.001 0 000 4zm11.572 0H76a2.001 2.001 0 000-4H40.286a2.001 2.001 0 000 4zM28.714 43.43h20.429a2.001 2.001 0 000-4H28.714a2.001 2.001 0 000 4zm25.143 0h11.429a2.001 2.001 0 000-4H53.857a2.001 2.001 0 000 4zm17.143 0h5a2.001 2.001 0 000-4h-5a2.001 2.001 0 000 4zM28.714 29.715a2.001 2.001 0 010-4h34a2.001 2.001 0 010 4h-34zm40.143 0H76a2.001 2.001 0 000-4h-7.143a2.001 2.001 0 000 4zM21.714 18.743h30a2.001 2.001 0 000-4h-30a2.001 2.001 0 000 4zm43.715 0h11.857a2.001 2.001 0 000-4H65.429a2.001 2.001 0 000 4z" fill="#6a737d"/><circle cx="92" cy="83" r="1" fill="#6a737d" transform="matrix(.71429 0 0 .68571 -44.286 -29.2)"/><path d="M21.429 25.028a2.702 2.702 0 00-2.715 2.686A2.702 2.702 0 0021.43 30.4a2.702 2.702 0 002.714-2.686 2.702 2.702 0 00-2.714-2.686zm0 4c-.733 0-1.286-.61-1.286-1.314 0-.703.553-1.314 1.286-1.314.732 0 1.285.611 1.285 1.314 0 .703-.553 1.315-1.285 1.315z" fill="#6a737d"/><circle cx="92" cy="83" r="1" fill="#6a737d" transform="matrix(.71429 0 0 .68571 -44.286 -15.486)"/><path d="M21.429 38.743a2.702 2.702 0 00-2.715 2.686 2.702 2.702 0 002.715 2.686 2.702 2.702 0 002.714-2.686 2.702 2.702 0 00-2.714-2.686zm0 4c-.733 0-1.286-.612-1.286-1.314 0-.703.553-1.315 1.286-1.315.732 0 1.285.612 1.285 1.315 0 .702-.553 1.314-1.285 1.314z" fill="#6a737d"/><circle cx="92" cy="83" r="1" fill="#6a737d" transform="matrix(.71429 0 0 .68571 -44.286 -1.771)"/><path d="M21.429 52.457a2.702 2.702 0 00-2.715 2.686 2.702 2.702 0 002.715 2.686 2.702 2.702 0 002.714-2.686 2.702 2.702 0 00-2.714-2.686zm0 4c-.733 0-1.286-.611-1.286-1.314 0-.703.553-1.315 1.286-1.315.732 0 1.285.612 1.285 1.315s-.553 1.314-1.285 1.314z" fill="#6a737d"/><circle cx="92" cy="83" r="1" fill="#6a737d" transform="matrix(.71429 0 0 .68571 -44.286 11.943)"/><path d="M21.429 66.171a2.702 2.702 0 00-2.715 2.686 2.702 2.702 0 002.715 2.686 2.702 2.702 0 002.714-2.686 2.702 2.702 0 00-2.714-2.686zm0 4c-.733 0-1.286-.611-1.286-1.314 0-.703.553-1.314 1.286-1.314.732 0 1.285.611 1.285 1.314 0 .703-.553 1.315-1.285 1.315z" fill="#6a737d"/><circle cx="92" cy="83" r="1" fill="#6a737d" transform="matrix(.71429 0 0 .68571 -44.286 25.657)"/><path d="M21.429 79.885a2.702 2.702 0 00-2.715 2.686 2.702 2.702 0 002.715 2.686 2.702 2.702 0 002.714-2.686 2.702 2.702 0 00-2.714-2.686zm0 4c-.733 0-1.286-.61-1.286-1.314 0-.702.553-1.314 1.286-1.314.732 0 1.285.612 1.285 1.314 0 .703-.553 1.315-1.285 1.315z" fill="#6a737d"/><path d="M87.714 90.805V9.195A9.195 9.195 0 0078.52 0H21.481a9.195 9.195 0 00-9.195 9.195v81.61A9.195 9.195 0 0021.48 100h57.038a9.195 9.195 0 009.195-9.195zm-4-81.61v81.61A5.195 5.195 0 0178.52 96H21.481a5.195 5.195 0 01-5.195-5.195V9.195A5.195 5.195 0 0121.48 4h57.038a5.195 5.195 0 015.195 5.195z" fill="#6a737d"/></svg>