<svg viewBox="0 0 100 100" fill-rule="evenodd" clip-rule="evenodd" stroke-linecap="round" stroke-linejoin="round" stroke-miterlimit="2" class="icon"><path d="M100 38.5V24.368c0-2.613-1.678-4.938-4.176-5.788L52.011 3.684a6.252 6.252 0 00-4.022 0L4.176 18.58C1.678 19.43 0 21.755 0 24.368v31.505a6.12 6.12 0 003.868 5.674L49.001 79.6a2.685 2.685 0 001.998 0l45.133-18.053A6.12 6.12 0 00100 55.873V45.5" fill="none" stroke="#6a737d" stroke-width="4.13" transform="matrix(.96247 0 0 .973 1.877 9.62)"/><path d="M13.426 72.768v-7.744a2.613 2.613 0 013.569-2.431l12.1 4.756a2.612 2.612 0 011.656 2.432v9.895l-17.325-6.908zm4-2.712l9.325 3.72v-3.05l-9.325-3.665v2.995zM13.627 44.72a2.612 2.612 0 01-1.645-2.426v-9.808l17.325 6.811v7.821a2.611 2.611 0 01-3.58 2.428c-3.708-1.48-9.338-3.724-12.1-4.825zm2.355-3.367l9.325 3.719v-3.05l-9.325-3.665v2.996z" fill="#6a737d"/><path d="M27 41l52-18-17-6-20.2 7M30 28.089L11.5 34.5" fill="none" stroke="#6a737d" stroke-width="4.13" transform="matrix(.96247 0 0 .973 1.877 .377)"/><path d="M97 22L50 40 3 22l47 18v37" fill="none" stroke="#6a737d" stroke-width="4.13" transform="matrix(.96247 0 0 .973 1.877 9.62)"/><g fill="#6a737d"><path d="M85.517 47.757a1.355 1.355 0 00-1.86-1.295l-17.74 7.114c-.478.191-.797.65-.811 1.165v.004a1.357 1.357 0 001.86 1.296l17.739-7.113c.479-.193.797-.65.812-1.166v-.005z"/><path d="M85.517 47.757a1.355 1.355 0 00-1.86-1.295l-17.74 7.114c-.478.191-.797.65-.811 1.165v.004a1.357 1.357 0 001.86 1.296l17.739-7.113c.479-.193.797-.65.812-1.166v-.005z"/><g><path d="M85.357 53.593a1.355 1.355 0 00-1.86-1.295l-17.74 7.113c-.479.192-.797.65-.812 1.165v.005a1.357 1.357 0 001.86 1.295l17.74-7.113c.478-.192.797-.65.811-1.166v-.004z"/><path d="M85.357 53.593a1.355 1.355 0 00-1.86-1.295l-17.74 7.113c-.479.192-.797.65-.812 1.165v.005a1.357 1.357 0 001.86 1.295l17.74-7.113c.478-.192.797-.65.811-1.166v-.004z"/></g></g></svg>