<svg viewBox="0 0 100 100" xmlns="http://www.w3.org/2000/svg" fill-rule="evenodd" clip-rule="evenodd" stroke-linejoin="round" stroke-miterlimit="2" class="icon"><path d="M100.124 47.081v-13.75a7.955 7.955 0 00-5.37-7.524L52.586 11.314a7.957 7.957 0 00-5.172 0L5.246 25.807a7.955 7.955 0 00-5.37 7.524v30.654A7.955 7.955 0 004.85 71.36l43.439 17.566a4.567 4.567 0 003.422 0l43.44-17.566a7.955 7.955 0 004.973-7.375V53.892c0-1.103-.897-2-2-2-1.104 0-2 .897-2 2v10.093a3.954 3.954 0 01-2.473 3.666L50.21 85.218a.569.569 0 01-.423 0L6.35 67.65a3.954 3.954 0 01-2.472-3.666V33.33a3.954 3.954 0 012.67-3.74l42.167-14.494a3.948 3.948 0 012.572 0A729430.3 729430.3 0 0193.454 29.59a3.954 3.954 0 012.67 3.74v13.751c0 1.103.896 2 2 2 1.103 0 2-.897 2-2z" fill="#6a737d"/><path d="M13.426 72.768v-7.744a2.613 2.613 0 013.569-2.431l12.1 4.756a2.612 2.612 0 011.656 2.432v9.895l-17.325-6.908zm4-2.712l9.325 3.72v-3.05l-9.325-3.665v2.995zM13.627 44.72a2.612 2.612 0 01-1.645-2.426v-9.808l17.325 6.811v7.821a2.611 2.611 0 01-3.58 2.428c-3.708-1.48-9.338-3.724-12.1-4.825zm2.355-3.367l9.325 3.719v-3.05l-9.325-3.665v2.996z" fill="#6a737d"/><path d="M61.544 19.04l-18.775 6.577a2.001 2.001 0 01-1.322-3.775l19.441-6.811c.433-.151.903-.15 1.333.003l16.362 5.838a2 2 0 01-.011 3.772L28.523 42.158a2 2 0 11-1.32-3.776l44.706-15.644-10.365-3.699zM30.09 25.82l-17.806 6.238a2.001 2.001 0 001.322 3.775l17.806-6.238a2.001 2.001 0 00-1.323-3.775z" fill="#6a737d"/><path d="M4.899 29.031c.196.013.394.055.587.13L50 46.396l44.514-17.235a2 2 0 011.444 3.73L52 49.912v34.63c0 1.104-.896 2-2 2s-2-.896-2-2v-34.63L4.042 32.89a2 2 0 01.661-3.864h.098l.098.004z" fill="#6a737d"/><path d="M85.517 47.757a1.355 1.355 0 00-1.86-1.295l-17.74 7.114c-.478.191-.797.65-.811 1.165v.004a1.357 1.357 0 001.86 1.296l17.739-7.113c.479-.193.797-.65.812-1.166v-.005zM85.357 53.593a1.355 1.355 0 00-1.86-1.295l-17.74 7.113c-.479.192-.797.65-.812 1.165v.005a1.357 1.357 0 001.86 1.295l17.74-7.113c.478-.192.797-.65.811-1.166v-.004z" fill="#6a737d"/></svg>