<svg viewBox="0 0 100 100" xmlns="http://www.w3.org/2000/svg" fill-rule="evenodd" clip-rule="evenodd" stroke-linejoin="round" stroke-miterlimit="2" class="icon"><path d="M32.548 3c-7.175 0-13 5.825-13 13s5.825 13 13 13 13-5.825 13-13-5.825-13-13-13zm0 4c-4.967 0-9 4.033-9 9s4.033 9 9 9 9-4.033 9-9-4.033-9-9-9z" fill="#6a737d"/><path d="M67.898 3c-7.175 0-13 5.825-13 13s5.825 13 13 13 13-5.825 13-13-5.825-13-13-13zm0 4c-4.967 0-9 4.033-9 9s4.033 9 9 9 9-4.033 9-9-4.033-9-9-9z" fill="#6a737d" fill-opacity=".25"/><path d="M49.255 41.078l-1.627-2.826A12.477 12.477 0 0036.815 32H26.096a12.477 12.477 0 00-11.29 7.164L3.112 64.014A7.003 7.003 0 009.45 74h.003a6.044 6.044 0 005.406-3.341l2.857-5.715V91.5a6.5 6.5 0 006.5 6.5v-4 4a6.5 6.5 0 006.5-6.5V69a.997.997 0 011-1v-4 4a.997.997 0 011 1v22.5a6.5 6.5 0 006.5 6.5v-4 4a6.5 6.5 0 006.5-6.5V73.872l-.913.128h-.004a6.554 6.554 0 01-3.083-.751V91.5a2.5 2.5 0 11-5 0V69a5.004 5.004 0 00-1.464-3.536 5.004 5.004 0 00-7.072 0A5.004 5.004 0 0026.716 69v22.5a2.5 2.5 0 11-5 0V51.999a.944.944 0 00-1.788-.422L11.281 68.87A2.043 2.043 0 019.453 70H9.45a3.005 3.005 0 01-2.718-4.283l11.693-24.849A8.478 8.478 0 0126.096 36h10.719a8.478 8.478 0 017.346 4.247l3.019 5.242 2.075-4.411zM57.066 54.644v8.016l1.208 2.098a2.829 2.829 0 01-.003 2.828 2.672 2.672 0 01-1.205 1.106v4.143c1.948-.313 3.66-1.503 4.668-3.246l.36-.87a4.544 4.544 0 01.465-1.844c.202-1.402-.089-2.845-.819-4.113l-4.674-8.118zM53.066 72.308v-5.974l-.385-.621-2.102 4.204.156.252a5.782 5.782 0 002.331 2.139z" fill="#6a737d"/><path d="M46.66 55.987l-4.579 9.73A3.004 3.004 0 0044.799 70h.004c.326 0 .64-.078.913-.234v-7.705l2.389 3.86 2.102-4.204-3.547-5.73zM44.149 51.93l-.331-.535a1.137 1.137 0 00-2.102.598v5.106l2.433-5.169zM55.292 51.563l-3.604-6.26-2.076 4.411 3.531 6.132 2.135-4.269.014-.014z" fill="#6a737d"/><path d="M53.065 72.308V91.5a6.5 6.5 0 006.5 6.5v-4 4a6.5 6.5 0 006.5-6.5V69a.997.997 0 011-1v-4 4a.997.997 0 011 1v22.5a6.5 6.5 0 006.5 6.5v-4 4a6.5 6.5 0 006.5-6.5V62.061l5.02 8.108A5.98 5.98 0 0091.166 73h.003a6.83 6.83 0 005.92-10.238l-14.113-24.51A12.477 12.477 0 0072.164 32H61.445a12.477 12.477 0 00-11.29 7.164l-.9 1.914 2.432 4.225 2.087-4.435A8.478 8.478 0 0161.445 36h10.72a8.478 8.478 0 017.345 4.247l14.113 24.511A2.829 2.829 0 0191.17 69h-.003a1.978 1.978 0 01-1.682-.937L79.167 51.395a1.137 1.137 0 00-2.102.598V91.5a2.5 2.5 0 11-5 0V69a5.004 5.004 0 00-1.464-3.536 5.004 5.004 0 00-7.072 0 4.605 4.605 0 00-.97 1.411l-.139 1.053-.327.791-.028.281v22.5a2.5 2.5 0 11-5 0V72.835L55.82 73h-.003a5.74 5.74 0 01-2.752-.692zM48.105 65.921L46.63 68.87c-.2.401-.522.716-.915.896v4.106c1.926-.238 3.608-1.444 4.493-3.213l.371-.742-2.474-3.996z" fill="#6a737d" fill-opacity=".25"/><path d="M46.66 55.987l-2.512-4.057-2.433 5.169v16.15A6.555 6.555 0 0044.8 74h.003l.913-.128v-4.106a1.833 1.833 0 01-.913.234H44.8a3.005 3.005 0 01-2.718-4.283l4.578-9.73zM53.065 66.334v5.974a5.74 5.74 0 002.752.692h.003l1.245-.165v-4.143A2.59 2.59 0 0155.82 69h-.003a1.978 1.978 0 01-1.682-.937l-1.07-1.729zM48.105 65.921l2.474 3.996 2.102-4.204-2.474-3.996-2.102 4.204zM55.277 51.577l-2.135 4.269 3.923 6.814v-8.016l-1.774-3.081-.014.014zM47.18 45.489l2.431 4.225 2.076-4.411-2.432-4.225-2.076 4.411z" fill="#6a737d"/></svg>