<svg viewBox="0 0 100 100" xmlns="http://www.w3.org/2000/svg" fill-rule="evenodd" clip-rule="evenodd" stroke-linejoin="round" stroke-miterlimit="2" class="icon"><path d="M24.458 92.984C9.816 84.257 0 68.266 0 50 0 22.404 22.404 0 50 0s50 22.404 50 50-22.404 50-50 50l-.222-.001-.223.001c-9.243 0-17.859-2.577-25.097-7.016zm25.317 3.015c13.976-.067 26.377-6.55 34.067-16.535C76.223 71.24 64.09 66 50.483 66c-14.207 0-26.812 5.712-34.338 14.563a41.932 41.932 0 0010.363 8.986 45.739 45.739 0 0023.267 6.45zm37.36-18.861A45.772 45.772 0 0096 50C96 24.612 75.388 4 50 4S4 24.612 4 50a45.784 45.784 0 009.306 27.731C21.546 68.217 35.132 62 50.483 62c15.03 0 28.367 5.959 36.652 15.138zM50 18.585c8.669 0 15.708 7.038 15.708 15.707C65.708 42.962 58.669 50 50 50s-15.708-7.038-15.708-15.708c0-8.669 7.039-15.707 15.708-15.707zm0 4c6.462 0 11.708 5.246 11.708 11.707C61.708 40.754 56.462 46 50 46s-11.708-5.246-11.708-11.708c0-6.461 5.246-11.707 11.708-11.707z" fill="#6a737d"/></svg>