<svg viewBox="0 0 100 100" xmlns="http://www.w3.org/2000/svg" fill-rule="evenodd" clip-rule="evenodd" stroke-linejoin="round" stroke-miterlimit="2" class="icon"><path d="M30.434 36.179a41.728 41.728 0 0029.015 32.534l2.6.784a1.372 1.372 0 001.636-.726l3.258-6.877a1.998 1.998 0 011.807-1.144h12.705a4.63 4.63 0 014.587 4.004l2.584 18.948a2.713 2.713 0 01-2.593 3.074l-.517.017a69.519 69.519 0 01-71.842-71.809v-.003a4.171 4.171 0 014.547-4.015l17.556 1.596a4.37 4.37 0 013.973 4.351V28.75c0 .66-.326 1.278-.871 1.651l-8.445 5.778zm5.316-8.484V16.913a.368.368 0 00-.335-.367L17.859 14.95a.173.173 0 00-.129.042.17.17 0 00-.058.124v.002A65.516 65.516 0 0084.468 82.82l-2.39-17.526a.628.628 0 00-.623-.544H70.016L67.3 70.483a5.373 5.373 0 01-6.406 2.844l-2.6-.784A45.73 45.73 0 0126.37 36.147a2.917 2.917 0 011.23-2.876l8.15-5.576z" fill="#6a737d"/></svg>