<svg viewBox="0 0 100 100" fill-rule="evenodd" clip-rule="evenodd" stroke-linecap="round" stroke-linejoin="round" stroke-miterlimit="3" class="icon"><path d="M85.966 84.777a.71.71 0 00.678-.805L84.06 65.024a2.629 2.629 0 00-2.605-2.274H68.75l-3.258 6.877a3.371 3.371 0 01-4.021 1.785l-2.599-.784a43.728 43.728 0 01-30.528-34.804s0 0 0 0a.914.914 0 01.386-.902l9.02-6.172V16.913a2.369 2.369 0 00-2.154-2.359L18.04 12.958a2.174 2.174 0 00-2.367 2.09v.003a67.518 67.518 0 0069.775 69.743l.518-.017z" fill="none" stroke="#6a737d" stroke-width="4"/></svg>