<?xml version="1.0" encoding="UTF-8" standalone="no"?>
<!DOCTYPE svg PUBLIC "-//W3C//DTD SVG 1.1//EN" "http://www.w3.org/Graphics/SVG/1.1/DTD/svg11.dtd">
<svg width="100%" height="100%" viewBox="0 0 100 100" version="1.1" xmlns="http://www.w3.org/2000/svg" xmlns:xlink="http://www.w3.org/1999/xlink" xml:space="preserve" xmlns:serif="http://www.serif.com/" style="fill-rule:evenodd;clip-rule:evenodd;stroke-linecap:round;stroke-linejoin:round;stroke-miterlimit:3;">
    <g transform="matrix(1,0,0,1,-76.75,-72.75)">
        <g id="Phone">
            <path d="M162.716,157.527C162.916,157.52 163.104,157.428 163.233,157.275C163.363,157.122 163.421,156.921 163.394,156.722C162.981,153.692 161.469,142.604 160.81,137.774C160.632,136.471 159.52,135.5 158.205,135.5L145.5,135.5C145.5,135.5 141.72,141.8 139.527,145.455C138.654,146.91 136.836,147.489 135.282,146.808C133.539,146.043 131.106,144.976 128.425,143.8C116.411,138.531 107.291,128.285 103.451,115.74C103.163,114.799 102.905,113.955 102.688,113.249C102.275,111.898 102.747,110.432 103.872,109.577C107.36,106.927 114.5,101.5 114.5,101.5L114.5,89.663C114.5,88.438 113.566,87.415 112.346,87.304C108.181,86.926 99.06,86.096 94.79,85.708C94.195,85.654 93.604,85.848 93.156,86.243C92.708,86.639 92.443,87.201 92.423,87.798C92.423,87.799 92.423,87.8 92.423,87.801C91.796,106.489 98.946,124.6 112.171,137.819C125.396,151.037 143.51,158.18 162.198,157.544C162.391,157.538 162.564,157.532 162.716,157.527Z" style="fill:rgb(106,115,125);stroke:rgb(106,115,125);stroke-width:4px;"/>
        </g>
    </g>
</svg>
