<svg viewBox="0 0 100 100" xmlns="http://www.w3.org/2000/svg" fill-rule="evenodd" clip-rule="evenodd" stroke-linejoin="round" stroke-miterlimit="2" class="icon"><path d="M61.8 47l25.743 40H36.055L61.8 47z" fill="#6a737d"/><path d="M24.256 69l11.8 18h-23.6l11.8-18z" fill="#6a737d"/><ellipse cx="110" cy="107" rx="10" ry="7" fill="#6a737d" transform="matrix(.90616 0 0 1.29452 -65.616 -104.452)"/><path d="M100 19.078C100 8.548 91.452 0 80.922 0H19.078C8.548 0 0 8.548 0 19.078v61.844C0 91.452 8.548 100 19.078 100h61.844C91.452 100 100 91.452 100 80.922V19.078zm-4 0v61.844C96 89.244 89.244 96 80.922 96H19.078C10.756 96 4 89.244 4 80.922V19.078C4 10.756 10.756 4 19.078 4h61.844C89.244 4 96 10.756 96 19.078z" fill="#6a737d"/></svg>