<svg viewBox="0 0 100 100" fill-rule="evenodd" clip-rule="evenodd" stroke-linejoin="round" stroke-miterlimit="2" class="icon"><path d="M14.112 0A14.11 14.11 0 000 14.112v71.777a14.11 14.11 0 0014.112 14.112h71.776A14.11 14.11 0 00100 85.889V14.112A14.11 14.11 0 0085.888 0H14.112zm0 5h71.776A9.113 9.113 0 0195 14.111V85.89A9.113 9.113 0 0185.888 95H14.112A9.113 9.113 0 015 85.89V14.112A9.113 9.113 0 0114.112 5z" fill="#6a737d"/><path d="M61.8 47l25.743 40H36.055L61.8 47z" fill="#6a737d"/><path d="M24.256 69l11.8 18h-23.6l11.8-18z" fill="#6a737d"/><ellipse cx="110" cy="107" rx="10" ry="7" fill="#6a737d" transform="matrix(.90616 0 0 1.29452 -65.616 -104.452)"/></svg>