<svg viewBox="0 0 100 100" xmlns="http://www.w3.org/2000/svg" fill-rule="evenodd" clip-rule="evenodd" stroke-linejoin="round" stroke-miterlimit="2" class="icon"><path d="M49.51 2.87c.9-.9 2.362-.9 3.262 0L95.13 45.228c.9.9.9 2.362 0 3.262l-2.82 2.82a2.31 2.31 0 01-3.263 0l-8.253-8.253-23.532 20.591a2.03 2.03 0 00-.681 1.752l3.18 28.63a1.6 1.6 0 01-2.72 1.307L37.455 75.75 6.412 92.997a.986.986 0 01-1.326-1.36L23.01 61.304 2.663 40.96a1.6 1.6 0 011.307-2.72l28.63 3.18a2.03 2.03 0 001.752-.68l20.59-23.533-8.253-8.253a2.31 2.31 0 010-3.262L49.51 2.87zm41.168 44.415l.426-.426L51.141 6.896l-.426.426 9.702 9.702-23.055 26.349a6.03 6.03 0 01-5.204 2.022L10.33 42.97l17.7 17.7-13.848 23.435L38.15 70.79l16.88 16.88-2.425-21.827a6.03 6.03 0 012.022-5.204l26.35-23.055 9.701 9.702zM61.111 22.279L37.048 48.307l6.856 6.855 27.009-23.08-9.802-9.803zm.113 5.77L42.596 48.198l1.52 1.52 20.91-17.867-3.802-3.802z" fill="#6a737d"/></svg>