<svg viewBox="0 0 100 100" xmlns="http://www.w3.org/2000/svg" fill-rule="evenodd" clip-rule="evenodd" stroke-linecap="round" stroke-linejoin="round" stroke-miterlimit="3" class="icon"><g fill="#6a737d"><path d="M98 50.6l-44.4-7.2 7.932 7.27a8.112 8.112 0 012.632 5.947 8.112 8.112 0 01-2.578 5.97l-.036.032c-6.442 6.013-16.49 5.84-22.722-.391l-.002-.002a7.956 7.956 0 010-11.252L46.4 43.4 2 50.6l41.584-10.115a7.427 7.427 0 004.424-3.097s0 0 0 0a4.72 4.72 0 00.792-2.615V30.2L35.6 29l13.873-2.312c.35-.058.705-.058 1.054 0L64.4 29l-13.2 1.2v4.573c0 .93.276 1.84.792 2.615 0 0 0 0 0 0a7.427 7.427 0 004.424 3.097L98 50.6" stroke="#6a737d" stroke-width="3.996"/><g transform="matrix(1.2 0 0 1.2 -105.4 -117.7)"><circle cx="98.75" cy="143.75" r="3.25"/><path d="M98.75 140.5a3.251 3.251 0 010 6.5 3.251 3.251 0 010-6.5zm0 3.333a.083.083 0 110-.166.083.083 0 110 .166z"/></g><g transform="matrix(1.2 0 0 1.2 -32.5 -117.7)"><circle cx="98.75" cy="143.75" r="3.25"/><path d="M98.75 140.5a3.251 3.251 0 010 6.5 3.251 3.251 0 010-6.5zm0 3.333a.083.083 0 110-.166.083.083 0 110 .166z"/></g><g transform="matrix(1.2 0 0 1.2 -46.3 -120.1)"><circle cx="98.75" cy="143.75" r="3.25"/><path d="M98.75 140.5a3.251 3.251 0 010 6.5 3.251 3.251 0 010-6.5zm0 3.333a.083.083 0 110-.166.083.083 0 110 .166z"/></g><g transform="matrix(1.2 0 0 1.2 -90.1 -120.1)"><circle cx="98.75" cy="143.75" r="3.25"/><path d="M98.75 140.5a3.251 3.251 0 010 6.5 3.251 3.251 0 010-6.5zm0 3.333a.083.083 0 110-.166.083.083 0 110 .166z"/></g></g><path fill="#6a737d" d="M12 50h2v2h-2zM27.4 47.5h2v2h-2zM71.2 47.5h2v2h-2zM85 50h2v2h-2z"/></svg>