<svg viewBox="0 0 100 100" xmlns="http://www.w3.org/2000/svg" fill-rule="evenodd" clip-rule="evenodd" stroke-linejoin="round" stroke-miterlimit="2" class="icon"><path d="M71.907 73.366a31.077 31.077 0 008.867-27.364c-.146-1.005-.314-1.995-.474-2.937a.41.41 0 00-.815.087v.006l.003.082.153 3.632a27.657 27.657 0 01-10.723 23.05c0-.001 0 0 0 0h-.002a26.13 26.13 0 01-31.6.268l-.924-.69 11.796.512-.01-5.336-20.216-.454a1.467 1.467 0 00-1.491 1.641l2.083 17.524 5.617-.01-1.424-10.402.85.805c10.624 10.054 27.25 10.057 37.878.007.144-.137.288-.277.432-.421zM28.16 26.602a31.087 31.087 0 00-8.868 27.609c.162.996.335 1.98.5 2.917a.411.411 0 00.816-.092l-.001-.007-.004-.08-.177-3.636a27.635 27.635 0 0110.57-23.109h.002a26.122 26.122 0 0131.587-.465l.94.691-11.8-.44.045 5.335 20.217.333a1.468 1.468 0 001.482-1.651l-2.2-17.51-5.616.044 1.493 10.393-.869-.812c-10.682-9.983-27.303-9.882-37.863.231v.002c-.085.08-.17.163-.254.247z" fill="#6a737d"/></svg>