<svg viewBox="0 0 100 100" xmlns="http://www.w3.org/2000/svg" fill-rule="evenodd" clip-rule="evenodd" stroke-linejoin="round" stroke-miterlimit="2" class="icon"><path d="M49 3.51c24.99 0 45.28 20.29 45.28 45.28 0 24.99-20.29 45.279-45.28 45.279-24.99 0-45.28-20.29-45.28-45.28C3.72 23.8 24.01 3.51 49 3.51zm0 11c18.92 0 34.279 15.36 34.279 34.28S67.92 83.068 49 83.068 14.721 67.71 14.721 48.79c0-18.92 15.36-34.28 34.279-34.28z" fill="#6a737d"/><path d="M73.979 80.48l16.685 17.463a5.002 5.002 0 007.07.162 5.002 5.002 0 00.16-7.07L81.21 73.573a5.003 5.003 0 00-7.07-.161 5.003 5.003 0 00-.161 7.07z" fill="#6a737d"/></svg>