<svg viewBox="0 0 100 100" xmlns="http://www.w3.org/2000/svg" fill-rule="evenodd" clip-rule="evenodd" stroke-linejoin="round" stroke-miterlimit="2" class="icon"><path d="M97 2.533h.06l.023.002h.02l.032.002.022.001.012.002.017.001.07.008c.276.036.549.13.798.284l.072.047.01.007.006.004.02.014.034.024.013.01.012.009.018.016.024.018.016.014.017.013.016.015.016.012.02.019.02.018.013.013.009.007.021.023.027.026.01.011.024.026.032.035.032.038.022.026.01.012.022.03.019.024.007.01.012.015.014.023.014.02.013.02.015.02.008.015.01.014.02.035.014.022.003.007.044.08.034.073.006.013.005.01.008.018.014.034.01.025.007.018.006.016.006.018.013.035.01.026.003.012.001.004.014.045.01.036.012.05.007.027.001.004.004.017.008.04.004.02.002.011.005.026.005.03.002.015.002.017.005.036.002.02v.008l.003.026.004.043v.013l.002.05.002.035v.097l-.002.022-.002.046-.001.019v.01l-.002.016-.004.038-.004.031-.002.011v.01l-.005.031-.01.06a1.965 1.965 0 01-.069.273L69.04 95.648a2 2 0 01-3.78.056L49.38 52.068 3.07 48.161a2 2 0 01-.643-3.82l93.76-41.637.008-.002.025-.012.052-.02.01-.004.004-.002c.03-.012.06-.022.09-.032h.002l.02-.006.055-.018.009-.001.013-.004.034-.009.023-.006.014-.003.026-.006.03-.006.011-.003.016-.003.04-.008.025-.003h.009l.065-.01.096-.01.058-.002h.04L97 2.532zM53.138 50.705l13.908 38.214 25.45-77.123-39.358 38.909zm-41.959-5.873l38.89 3.28L87.817 10.8 11.18 44.832z" fill="#6a737d"/></svg>