<svg viewBox="0 0 100 100" xmlns="http://www.w3.org/2000/svg" fill-rule="evenodd" clip-rule="evenodd" stroke-linejoin="round" stroke-miterlimit="2" class="icon"><path d="M40.656 12.243l1.177-9.51A1.999 1.999 0 0143.56.994a49.937 49.937 0 0112.88 0 1.999 1.999 0 011.727 1.737l1.177 9.51a39.44 39.44 0 018.14 2.963l7.014-6.529a1.999 1.999 0 012.44-.22 49.988 49.988 0 019.867 8.278 2 2 0 01.206 2.442L81.8 27.218a39.453 39.453 0 014.331 7.502l9.57-.493a2 2 0 012.012 1.399 49.997 49.997 0 012.237 12.684 2 2 0 01-1.412 2.002l-9.162 2.81a39.431 39.431 0 01-1.504 8.531l7.648 5.775a2 2 0 01.642 2.364 49.992 49.992 0 01-6.44 11.155 2.001 2.001 0 01-2.369.627l-8.825-3.736c-2 2.094-4.225 3.96-6.635 5.567l2.146 9.34a1.998 1.998 0 01-1.028 2.223 50.01 50.01 0 01-12.103 4.406 2 2 0 01-2.217-1.042l-4.359-8.535a39.496 39.496 0 01-8.662 0l-4.359 8.535a2 2 0 01-2.217 1.042 50.01 50.01 0 01-12.103-4.406 1.998 1.998 0 01-1.028-2.223l2.146-9.34a39.47 39.47 0 01-6.635-5.567l-8.825 3.736a2.001 2.001 0 01-2.369-.627 49.992 49.992 0 01-6.44-11.155 2 2 0 01.642-2.364l7.648-5.775a39.431 39.431 0 01-1.504-8.53l-9.162-2.81A2 2 0 01.051 48.31c.196-4.307.947-8.57 2.237-12.684a2 2 0 012.011-1.4l9.57.494a39.453 39.453 0 014.332-7.502l-5.212-8.042a2 2 0 01.206-2.442 49.988 49.988 0 019.867-8.278 1.999 1.999 0 012.44.22l7.015 6.53a39.44 39.44 0 018.139-2.963zm13.735-7.455c-2.92-.28-5.861-.28-8.782 0l-1.156 9.343a1.999 1.999 0 01-1.583 1.713c-3.4.699-6.68 1.892-9.735 3.544a2 2 0 01-2.313-.296L23.93 12.68a45.927 45.927 0 00-6.727 5.645l5.12 7.9c.467.72.422 1.657-.111 2.33a35.454 35.454 0 00-5.18 8.971 2 2 0 01-1.962 1.261l-9.401-.483a45.895 45.895 0 00-1.525 8.648l9 2.76a2 2 0 011.412 1.857c.098 3.47.703 6.908 1.8 10.202a1.999 1.999 0 01-.694 2.227L8.15 69.67a45.937 45.937 0 004.39 7.606l8.67-3.67a2 2 0 012.275.513 35.444 35.444 0 007.936 6.659 2 2 0 01.9 2.152l-2.108 9.174a45.927 45.927 0 008.253 3.004l4.281-8.384a2 2 0 012.073-1.07c3.434.508 6.926.508 10.36 0a2 2 0 012.073 1.07l4.281 8.384a45.905 45.905 0 008.253-3.004l-2.109-9.174a2 2 0 01.901-2.152 35.444 35.444 0 007.936-6.66 2 2 0 012.275-.513l8.67 3.67a45.97 45.97 0 004.39-7.605l-7.512-5.673a1.999 1.999 0 01-.693-2.227 35.473 35.473 0 001.799-10.202 2 2 0 011.412-1.856l9-2.761a45.895 45.895 0 00-1.525-8.648l-9.401.483a2 2 0 01-1.963-1.26 35.454 35.454 0 00-5.179-8.972 2.001 2.001 0 01-.111-2.33l5.12-7.9a46.01 46.01 0 00-6.727-5.645l-6.892 6.413a2 2 0 01-2.313.296 35.479 35.479 0 00-9.735-3.544 1.999 1.999 0 01-1.583-1.713l-1.156-9.343zM50 18.643c-17.626 0-31.935 14.31-31.935 31.935 0 17.626 14.31 31.935 31.935 31.935 17.626 0 31.935-14.31 31.935-31.935 0-17.626-14.31-31.935-31.935-31.935zm0 4c15.418 0 27.935 12.517 27.935 27.935S65.418 78.513 50 78.513 22.065 65.996 22.065 50.578 34.582 22.643 50 22.643z" fill="#6a737d"/></svg>