<svg viewBox="0 0 100 100" xmlns="http://www.w3.org/2000/svg" fill-rule="evenodd" clip-rule="evenodd" stroke-linejoin="round" stroke-miterlimit="2" class="icon"><path d="M20.004 0c-1.128 0-2.807 1.012-2.807 1.012L2.522 10.431A5.467 5.467 0 00.08 15.898c.156.94.553 1.825 1.394 2.392C3.099 19.385 5.302 20 7.599 20s4.5-.615 6.124-1.71l1.394-.94a5.515 5.515 0 016.165 0l1.276.86c1.655 1.117 3.901 1.743 6.242 1.743 2.34 0 4.587-.626 6.241-1.742l1.277-.86a5.515 5.515 0 016.165 0l1.276.86c1.655 1.116 3.901 1.742 6.242 1.742 2.34 0 4.587-.626 6.241-1.742l1.277-.86a5.515 5.515 0 016.165 0l1.276.86c1.655 1.116 3.901 1.742 6.242 1.742 2.34 0 4.587-.626 6.241-1.742l1.277-.86a5.515 5.515 0 016.165 0l1.394.94C87.902 19.384 90.105 20 92.402 20c2.297 0 4.5-.615 6.124-1.71.836-.564 1.235-1.442 1.39-2.375a5.466 5.466 0 00-2.44-5.482c-4.44-2.852-14.673-9.42-14.673-9.42S81.124 0 79.996 0H20.004zM47.88 3.655h4.24l.505 8.128h-5.3l.555-8.128zm31.801 0h-4.24l9.54 8.128h6.36l-11.66-8.128zm-13.25 0h-4.24l1.59 8.128h9.01l-6.36-8.128zm-47.173 0h4.24l-9.54 8.128h-6.36l11.66-8.128zm13.251 0h4.24l-1.59 8.128h-9.01l6.36-8.128zM20.495 52.387c-1.273-.48-2.186-1.78-2.186-3.303 0-1.934 1.469-3.503 3.279-3.503 1.81 0 3.278 1.57 3.278 3.503 0 1.524-.912 2.822-2.186 3.303v9.741c1.274.481 2.186 1.78 2.186 3.304 0 1.933-1.469 3.503-3.278 3.503-1.81 0-3.279-1.57-3.279-3.503 0-1.524.913-2.823 2.186-3.304v-9.74z" fill="#6a737d"/><path d="M1.5 14.517a1.5 1.5 0 00-1.5 1.5V95.46A4.538 4.538 0 004.538 100h90.924A4.538 4.538 0 00100 95.46V16.015c0-.827-.67-1.498-1.499-1.498h-.263c-.828 0-1.499.671-1.499 1.498v77.532a1.79 1.79 0 01-1.79 1.79H34.013a1.4 1.4 0 01-.992-.412 1.4 1.4 0 01-.412-.993V15.504a.99.99 0 00-.987-.987h-.2a.987.987 0 00-.987.987v78.428c0 .776-.63 1.405-1.405 1.405H5.051a1.79 1.79 0 01-1.79-1.79v-77.53a1.497 1.497 0 00-1.5-1.5H1.5z" fill="#6a737d"/><g fill="#6a737d"><path d="M87.473 52.101a1.043 1.043 0 00-1.544-.001l-27.82 29.727a1.224 1.224 0 000 1.65 1.043 1.043 0 001.545.001l27.82-29.727a1.224 1.224 0 00-.001-1.65z"/><path d="M87.473 52.101a1.043 1.043 0 00-1.544-.001l-27.82 29.727a1.224 1.224 0 000 1.65 1.043 1.043 0 001.545.001l27.82-29.727a1.224 1.224 0 00-.001-1.65zm-.438.41c.214.23.215.6.001.83l-27.82 29.727a.45.45 0 01-.668-.002.615.615 0 01-.002-.829L86.367 52.51a.45.45 0 01.668.002zM85.911 63.595a1.043 1.043 0 00-1.544-.002L70.455 78.46a1.224 1.224 0 00.002 1.65A1.043 1.043 0 0072 80.11l13.912-14.865a1.224 1.224 0 00-.002-1.65z"/><path d="M85.911 63.595a1.043 1.043 0 00-1.544-.002L70.455 78.46a1.224 1.224 0 00.002 1.65A1.043 1.043 0 0072 80.11l13.912-14.865a1.224 1.224 0 00-.002-1.65zm-.438.41c.214.229.216.6.001.83L71.562 79.7a.45.45 0 01-.667-.001.616.616 0 01-.001-.83l13.912-14.865a.45.45 0 01.667.001z"/><g><path d="M75.95 52.951a1.043 1.043 0 00-1.544-.002L60.494 67.815a1.224 1.224 0 00.001 1.65 1.043 1.043 0 001.544.001l13.912-14.865a1.224 1.224 0 00-.001-1.65z"/><path d="M75.95 52.951a1.043 1.043 0 00-1.544-.002L60.494 67.815a1.224 1.224 0 00.001 1.65 1.043 1.043 0 001.544.001l13.912-14.865a1.224 1.224 0 00-.001-1.65zm-.438.41c.214.229.215.6.001.83L61.601 69.055a.45.45 0 01-.668-.002.616.616 0 010-.829l13.911-14.866a.45.45 0 01.668.002z"/></g></g></svg>