<svg viewBox="0 0 100 100" fill-rule="evenodd" clip-rule="evenodd" stroke-linejoin="round" stroke-miterlimit="2" class="icon"><path d="M71.051 35.82a2.568 2.568 0 010 5.134 2.568 2.568 0 010-5.135zm0 4.107a1.54 1.54 0 11.001-3.082 1.54 1.54 0 010 3.082zM29.976 35.82a2.568 2.568 0 010 5.134 2.568 2.568 0 010-5.135zm0 4.107a1.54 1.54 0 110-3.082 1.54 1.54 0 010 3.082z" fill="#6a737d"/><path d="M90.803 97.322A2.089 2.089 0 0188.798 100H11.202a2.09 2.09 0 01-2.005-2.678l5.73-19.525a36.058 36.058 0 00.726-17.389L8.79 26.888a1.543 1.543 0 011.51-1.851h79.4a1.542 1.542 0 011.51 1.851l-6.863 33.52a36.058 36.058 0 00.726 17.39l5.73 19.524zm-77.49-68.285l6.26 30.57a40.06 40.06 0 01-.808 19.317L13.753 96h72.494l-5.012-17.076a40.06 40.06 0 01-.807-19.318l6.259-30.57H13.313z" fill="#6a737d"/><path d="M17.452 29.145l-2.415-10.556a.11.11 0 01.107-.134h69.711a.11.11 0 01.108.134l-2.415 10.556H17.452z" fill="#6a737d" fill-opacity=".67"/><path d="M30.978 38.611l5.712-25.49A14.165 14.165 0 0150.513 2.054c6.63 0 12.373 4.597 13.823 11.067l5.713 25.49c.124.553.674.9 1.227.778.553-.125.9-.674.777-1.227l-5.713-25.49a16.22 16.22 0 00-31.653 0l-5.714 25.49a1.029 1.029 0 00.778 1.227 1.029 1.029 0 001.227-.778z" fill="#6a737d"/><g fill="#6a737d"><path d="M65.375 54.5H34.02c-.833 0-1.51-.776-1.51-1.733 0-.956.677-1.732 1.51-1.732h32.037c.737 0 1.434.38 1.901 1.033.468.654.655 1.515.51 2.344l-2.134 12.255a19.981 19.981 0 000 6.853l.853 4.897a1.924 1.924 0 01-.313 1.438c-.286.4-.715.634-1.167.634H39.301c-.477 0-.926-.26-1.211-.698a1.947 1.947 0 01-.235-1.533l1.958-7.492c.315-1.204 1.049-2.206 2.027-2.768L55.98 59.88c.745-.428 1.652-.08 2.024.775.373.855.07 1.896-.675 2.324L43.19 71.097a1.07 1.07 0 00-.486.664l-1.375 5.263h22.537l-.492-2.824a24.015 24.015 0 010-8.213L65.375 54.5z"/><path d="M55.145 62.501l-5.202-2.986c-.745-.428-1.048-1.47-.675-2.324.373-.856 1.28-1.203 2.024-.776l6.036 3.466c.512.293.834.893.834 1.55v6.93c0 .956-.676 1.732-1.508 1.732-.833 0-1.51-.776-1.51-1.732V62.5z"/></g></svg>