<svg viewBox="0 0 100 100" fill-rule="evenodd" clip-rule="evenodd" stroke-linejoin="round" stroke-miterlimit="2" class="icon"><path d="M71.051 35.82a2.568 2.568 0 010 5.134 2.568 2.568 0 010-5.135zm0 4.107a1.54 1.54 0 11.001-3.082 1.54 1.54 0 010 3.082zM29.976 35.82a2.568 2.568 0 010 5.134 2.568 2.568 0 010-5.135zm0 4.107a1.54 1.54 0 110-3.082 1.54 1.54 0 010 3.082z" fill="#6a737d"/><path d="M91.357 87.764A12.006 12.006 0 0179.352 100H20.656a12.01 12.01 0 01-8.574-3.6 12.01 12.01 0 01-3.43-8.642l.337-17.167c.007-.394.009-.787.003-1.18l-.56-42.811a1.542 1.542 0 011.541-1.562h80.054a1.543 1.543 0 011.541 1.562l-.56 41.817c-.006.389-.004.778.003 1.168l.346 18.18zM12.464 29.037l.528 40.32c.005.437.005.874-.005 1.312-.042 2.191-.198 10.101-.337 17.166A8.01 8.01 0 0020.656 96h58.696c2.15 0 4.21-.865 5.715-2.4a8 8 0 002.29-5.76l-.346-18.18a41.422 41.422 0 01-.003-1.298l.527-39.325H12.464z" fill="#6a737d"/><path d="M15 29l.007-10.435c0-.06.049-.11.11-.11h69.767c.06 0 .109.05.109.11L85 29H15z" fill="#6a737d" fill-opacity=".67"/><path d="M30.978 38.611l5.712-25.49A14.165 14.165 0 0150.513 2.054c6.63 0 12.373 4.597 13.823 11.067l5.713 25.49c.124.553.674.9 1.227.778.553-.125.9-.674.777-1.227l-5.713-25.49a16.22 16.22 0 00-31.653 0l-5.714 25.49a1.029 1.029 0 00.778 1.227 1.029 1.029 0 001.227-.778z" fill="#6a737d"/></svg>