<svg viewBox="0 0 100 100" fill-rule="evenodd" clip-rule="evenodd" stroke-linejoin="round" stroke-miterlimit="2" class="icon"><g fill="#6a737d"><path d="M20.004 0c-1.128 0-2.807 1.012-2.807 1.012L2.522 10.431A5.467 5.467 0 00.08 15.898c.156.94.553 1.825 1.394 2.392C3.099 19.385 5.302 20 7.599 20s4.5-.615 6.124-1.71l1.394-.94a5.515 5.515 0 016.165 0l1.276.86c1.655 1.117 3.901 1.743 6.242 1.743 2.34 0 4.587-.626 6.241-1.742l1.277-.86a5.515 5.515 0 016.165 0l1.276.86c1.655 1.116 3.901 1.742 6.242 1.742 2.34 0 4.587-.626 6.241-1.742l1.277-.86a5.515 5.515 0 016.165 0l1.276.86c1.655 1.116 3.901 1.742 6.242 1.742 2.34 0 4.587-.626 6.241-1.742l1.277-.86a5.515 5.515 0 016.165 0l1.394.94C87.902 19.384 90.105 20 92.402 20c2.297 0 4.5-.615 6.124-1.71.836-.564 1.235-1.442 1.39-2.375a5.466 5.466 0 00-2.44-5.482c-4.44-2.852-14.673-9.42-14.673-9.42S81.124 0 79.996 0H20.004zM47.88 3.655h4.24l.505 8.128h-5.3l.555-8.128zm31.801 0h-4.24l9.54 8.128h6.36l-11.66-8.128zm-13.25 0h-4.24l1.59 8.128h9.01l-6.36-8.128zm-47.173 0h4.24l-9.54 8.128h-6.36l11.66-8.128zm13.251 0h4.24l-1.59 8.128h-9.01l6.36-8.128z"/><path d="M20.004 0c-1.128 0-2.807 1.012-2.807 1.012L2.522 10.431A5.467 5.467 0 00.08 15.898c.156.94.553 1.825 1.394 2.392C3.099 19.385 5.302 20 7.599 20s4.5-.615 6.124-1.71l1.394-.94a5.515 5.515 0 016.165 0l1.276.86c1.655 1.117 3.901 1.743 6.242 1.743 2.34 0 4.587-.626 6.241-1.742l1.277-.86a5.515 5.515 0 016.165 0l1.276.86c1.655 1.116 3.901 1.742 6.242 1.742 2.34 0 4.587-.626 6.241-1.742l1.277-.86a5.515 5.515 0 016.165 0l1.276.86c1.655 1.116 3.901 1.742 6.242 1.742 2.34 0 4.587-.626 6.241-1.742l1.277-.86a5.515 5.515 0 016.165 0l1.394.94C87.902 19.384 90.105 20 92.402 20c2.297 0 4.5-.615 6.124-1.71.836-.564 1.235-1.442 1.39-2.375a5.466 5.466 0 00-2.44-5.482c-4.44-2.852-14.673-9.42-14.673-9.42S81.124 0 79.996 0H20.004zm62.482 1.522C82.374 1.453 80.962.6 79.996.6H20.004c-.966 0-2.378.853-2.49.922L2.847 10.935A4.864 4.864 0 00.67 15.8c.129.778.441 1.523 1.138 1.992C3.344 18.828 5.428 19.4 7.598 19.4c2.17 0 4.254-.573 5.789-1.607l1.394-.94a6.116 6.116 0 016.835 0l1.276.86c1.566 1.056 3.692 1.64 5.907 1.64 2.214 0 4.34-.584 5.906-1.64.44-.295.869-.585 1.277-.86a6.116 6.116 0 016.835 0l1.276.86c1.566 1.056 3.692 1.64 5.907 1.64 2.214 0 4.34-.584 5.906-1.64.44-.295.869-.585 1.277-.86a6.116 6.116 0 016.835 0l1.276.86c1.566 1.056 3.692 1.64 5.907 1.64 2.214 0 4.34-.584 5.906-1.64.44-.295.869-.585 1.277-.86a6.116 6.116 0 016.835 0l1.394.94c1.535 1.034 3.619 1.607 5.789 1.607 2.17 0 4.254-.573 5.789-1.607.692-.467 1.005-1.204 1.133-1.974a4.866 4.866 0 00-2.173-4.882c-4.37-2.808-14.363-9.22-14.665-9.415zm-2.461 1.64a.602.602 0 00-.344-.107h-4.24a.6.6 0 00-.389 1.057l9.54 8.128a.596.596 0 00.39.143h6.36a.6.6 0 00.343-1.092l-11.66-8.128zM47.88 3.056a.6.6 0 00-.6.56l-.555 8.128a.598.598 0 00.6.64h5.3a.6.6 0 00.598-.637l-.504-8.128a.6.6 0 00-.6-.563h-4.24zm19.023.23a.602.602 0 00-.472-.23h-4.24a.6.6 0 00-.589.715l1.59 8.128a.599.599 0 00.588.485h9.01a.6.6 0 00.474-.97l-6.36-8.128zm-47.645-.23a.602.602 0 00-.343.108L7.255 11.29a.6.6 0 00.343 1.092h6.36c.143 0 .281-.05.39-.143l9.54-8.128a.599.599 0 00-.39-1.057h-4.24zm13.251 0a.602.602 0 00-.473.23l-6.36 8.128a.601.601 0 00.473.97h9.01a.599.599 0 00.588-.485l1.59-8.128a.6.6 0 00-.588-.715h-4.24zm15.37.6h4.24l.506 8.128h-5.3l.555-8.128zm31.802 0h-4.24l9.54 8.128h6.36l-11.66-8.128zm-13.25 0h-4.24l1.59 8.128h9.01l-6.36-8.128zm-47.173 0h4.24l-9.54 8.128h-6.36l11.66-8.128zm13.251 0h4.24l-1.59 8.128h-9.01l6.36-8.128z"/><g><path d="M20.495 52.387c-1.273-.48-2.186-1.78-2.186-3.303 0-1.934 1.469-3.503 3.279-3.503 1.81 0 3.278 1.57 3.278 3.503 0 1.524-.912 2.822-2.186 3.303v9.741c1.274.481 2.186 1.78 2.186 3.304 0 1.933-1.469 3.503-3.278 3.503-1.81 0-3.279-1.57-3.279-3.503 0-1.524.913-2.823 2.186-3.304v-9.74z"/><path d="M20.495 52.387c-1.273-.48-2.186-1.78-2.186-3.303 0-1.934 1.469-3.503 3.279-3.503 1.81 0 3.278 1.57 3.278 3.503 0 1.524-.912 2.822-2.186 3.303v9.741c1.274.481 2.186 1.78 2.186 3.304 0 1.933-1.469 3.503-3.278 3.503-1.81 0-3.279-1.57-3.279-3.503 0-1.524.913-2.823 2.186-3.304v-9.74zm.6 0a.6.6 0 00-.388-.561c-1.054-.398-1.798-1.48-1.798-2.742 0-1.591 1.19-2.903 2.679-2.903 1.49 0 2.678 1.312 2.678 2.903 0 1.261-.744 2.344-1.798 2.742a.6.6 0 00-.388.561v9.741a.6.6 0 00.388.562c1.054.398 1.798 1.48 1.798 2.742 0 1.591-1.189 2.902-2.678 2.902-1.49 0-2.679-1.31-2.679-2.902 0-1.262.744-2.344 1.798-2.742a.6.6 0 00.388-.562v-9.74z"/><path d="M1.232 14.517a1.5 1.5 0 00-1.5 1.5V95.46A4.538 4.538 0 004.269 100h91.462a4.538 4.538 0 004.537-4.539V16.015a1.498 1.498 0 00-1.498-1.498h-.282c-.827 0-1.498.671-1.498 1.498v77.532a1.792 1.792 0 01-1.79 1.79H33.92a1.406 1.406 0 01-1.405-1.405V15.504a.985.985 0 00-.986-.987h-.212a.986.986 0 00-.987.987v78.428a1.402 1.402 0 01-1.404 1.405H4.8a1.787 1.787 0 01-1.79-1.79v-77.53a1.5 1.5 0 00-1.5-1.5h-.278z"/><path d="M1.232 14.517a1.5 1.5 0 00-1.5 1.5V95.46A4.538 4.538 0 004.269 100h91.462a4.538 4.538 0 004.537-4.539V16.015a1.498 1.498 0 00-1.498-1.498h-.282c-.827 0-1.498.671-1.498 1.498v77.532a1.792 1.792 0 01-1.79 1.79H33.92a1.406 1.406 0 01-1.405-1.405V15.504a.985.985 0 00-.986-.987h-.212a.986.986 0 00-.987.987v78.428a1.402 1.402 0 01-1.404 1.405H4.8a1.787 1.787 0 01-1.79-1.79v-77.53a1.5 1.5 0 00-1.5-1.5h-.278zm0 .5a1 1 0 00-1 1V95.46A4.037 4.037 0 004.27 99.5h91.462a4.037 4.037 0 004.037-4.038V16.015a.998.998 0 00-.998-.998h-.282a.998.998 0 00-.998.998v77.532a2.29 2.29 0 01-2.29 2.29H33.92a1.903 1.903 0 01-1.905-1.905V15.504a.487.487 0 00-.486-.487h-.212a.487.487 0 00-.486.486v78.429a1.907 1.907 0 01-1.905 1.905H4.8a2.293 2.293 0 01-2.29-2.29v-77.53a1 1 0 00-1-1h-.278z"/><g><path d="M87.473 52.101a1.043 1.043 0 00-1.544-.001l-27.82 29.727a1.224 1.224 0 000 1.65 1.043 1.043 0 001.545.001l27.82-29.727a1.224 1.224 0 00-.001-1.65z"/><path d="M87.473 52.101a1.043 1.043 0 00-1.544-.001l-27.82 29.727a1.224 1.224 0 000 1.65 1.043 1.043 0 001.545.001l27.82-29.727a1.224 1.224 0 00-.001-1.65zm-.438.41c.214.23.215.6.001.83l-27.82 29.727a.45.45 0 01-.668-.002.615.615 0 01-.002-.829L86.367 52.51a.45.45 0 01.668.002zM85.911 63.595a1.043 1.043 0 00-1.544-.002L70.455 78.46a1.224 1.224 0 00.002 1.65A1.043 1.043 0 0072 80.11l13.912-14.865a1.224 1.224 0 00-.002-1.65z"/><path d="M85.911 63.595a1.043 1.043 0 00-1.544-.002L70.455 78.46a1.224 1.224 0 00.002 1.65A1.043 1.043 0 0072 80.11l13.912-14.865a1.224 1.224 0 00-.002-1.65zm-.438.41c.214.229.216.6.001.83L71.562 79.7a.45.45 0 01-.667-.001.616.616 0 01-.001-.83l13.912-14.865a.45.45 0 01.667.001z"/><g><path d="M75.95 52.951a1.043 1.043 0 00-1.544-.002L60.494 67.815a1.224 1.224 0 00.001 1.65 1.043 1.043 0 001.544.001l13.912-14.865a1.224 1.224 0 00-.001-1.65z"/><path d="M75.95 52.951a1.043 1.043 0 00-1.544-.002L60.494 67.815a1.224 1.224 0 00.001 1.65 1.043 1.043 0 001.544.001l13.912-14.865a1.224 1.224 0 00-.001-1.65zm-.438.41c.214.229.215.6.001.83L61.601 69.055a.45.45 0 01-.668-.002.616.616 0 010-.829l13.911-14.866a.45.45 0 01.668.002z"/></g></g></g></g></svg>