<svg viewBox="0 0 100 100" fill-rule="evenodd" clip-rule="evenodd" stroke-linejoin="round" stroke-miterlimit="2" class="icon"><path d="M71.051 35.82a2.568 2.568 0 010 5.134 2.568 2.568 0 010-5.135zm0 4.107a1.54 1.54 0 11.001-3.082 1.54 1.54 0 010 3.082zM29.976 35.82a2.568 2.568 0 010 5.134 2.568 2.568 0 010-5.135zm0 4.107a1.54 1.54 0 110-3.082 1.54 1.54 0 010 3.082z" fill="#6a737d"/><path d="M90.803 97.322A2.089 2.089 0 0188.798 100H11.202a2.09 2.09 0 01-2.005-2.678l5.73-19.525a36.058 36.058 0 00.726-17.389L8.79 26.888a1.543 1.543 0 011.51-1.851h79.4a1.542 1.542 0 011.51 1.851l-6.863 33.52a36.058 36.058 0 00.726 17.39l5.73 19.524zm-77.49-68.285l6.26 30.57a40.06 40.06 0 01-.808 19.317L13.753 96h72.494l-5.012-17.076a40.06 40.06 0 01-.807-19.318l6.259-30.57H13.313z" fill="#6a737d"/><path d="M17.452 29.145l-2.415-10.556a.11.11 0 01.107-.134h69.711a.11.11 0 01.108.134l-2.415 10.556H17.452z" fill="#6a737d" fill-opacity=".67"/><path d="M30.978 38.611l5.712-25.49A14.165 14.165 0 0150.513 2.054c6.63 0 12.373 4.597 13.823 11.067l5.713 25.49c.124.553.674.9 1.227.778.553-.125.9-.674.777-1.227l-5.713-25.49a16.22 16.22 0 00-31.653 0l-5.714 25.49a1.029 1.029 0 00.778 1.227 1.029 1.029 0 001.227-.778z" fill="#6a737d"/></svg>