<svg viewBox="0 0 100 100" fill-rule="evenodd" clip-rule="evenodd" stroke-linejoin="round" stroke-miterlimit="2" class="icon"><path d="M0 56v23.685C0 90.897 9.103 100 20.315 100h59.37C90.897 100 100 90.897 100 79.685v-59.37C100 9.103 90.897 0 79.685 0h-59.37C9.103 0 0 9.103 0 20.315V44h4V20.315C4 11.31 11.31 4 20.315 4h59.37C88.69 4 96 11.31 96 20.315v59.37C96 88.69 88.69 96 79.685 96h-59.37C11.31 96 4 88.69 4 79.685V56H0z" fill="#6a737d"/><path d="M59.515 48.25H-.001v4h59.516L44.728 64.028a2.863 2.863 0 00-.02 4.468l.002.001c.544.44 1.32.448 1.87.017 3.913-3.05 18.827-14.682 22.567-17.598a.855.855 0 00.007-1.343c-3.692-2.956-18.41-14.738-22.473-17.989a1.534 1.534 0 00-2.013.084h-.002a3.266 3.266 0 00.21 4.923l14.639 11.66z" fill="#6a737d"/><path d="M59.515 48.25H-.001v4h59.516L44.728 64.028a2.863 2.863 0 00-.02 4.468l.002.001c.544.44 1.32.448 1.87.017 3.913-3.05 18.827-14.682 22.567-17.598a.855.855 0 00.007-1.343c-3.692-2.956-18.41-14.738-22.473-17.989a1.534 1.534 0 00-2.013.084h-.002a3.266 3.266 0 00.21 4.923l14.639 11.66zm.7 2l.702 2.01 2.63-2.05-2.592-2.077-.74 2.117z" fill="#6a737d"/></svg>