<svg viewBox="0 0 100 100" xmlns="http://www.w3.org/2000/svg" fill-rule="evenodd" clip-rule="evenodd" stroke-linejoin="round" stroke-miterlimit="2" class="icon"><path d="M100 50c0-9.665-7.835-17.5-17.5-17.5h-65A17.5 17.5 0 000 50c0 9.665 7.835 17.5 17.5 17.5h65c9.665 0 17.5-7.835 17.5-17.5zm-4 0c0-7.455-6.044-13.5-13.5-13.5h-65A13.5 13.5 0 004 50c0 7.455 6.044 13.5 13.5 13.5h65C89.956 63.5 96 57.454 96 50z" fill="#6a737d"/><circle cx="99.5" cy="132.5" r="7.5" fill="#6a737d" transform="matrix(1.46666 0 0 1.46666 -63.933 -144.333)"/></svg>