<svg viewBox="0 0 100 100" fill-rule="evenodd" clip-rule="evenodd" stroke-linejoin="round" stroke-miterlimit="2" class="icon"><path d="M73.58 21.914a.978.978 0 011.215.65c1.483 4.903 5.731 13.53 7.163 18.265a4.591 4.591 0 01-.346 3.498l-18.4 34.367a2.561 2.561 0 01-3.467 1.05c-3.252-1.742-7.555-3.966-12.301-6.507a2 2 0 00-1.888 3.526c4.746 2.541 9.049 4.765 12.301 6.507a6.561 6.561 0 008.881-2.688l18.4-34.367a8.595 8.595 0 00.65-6.545c-1.433-4.735-5.68-13.362-7.164-18.263a4.978 4.978 0 00-6.203-3.321 2 2 0 101.158 3.828z" fill="#6a737d"/><path d="M47.071 20.04a7.125 7.125 0 015.038-2.087h22.118a3.213 3.213 0 013.215 3.214v22.119c0 1.889-.75 3.701-2.087 5.038L45.571 78.108a4.928 4.928 0 01-6.969 0L17.287 56.793a4.928 4.928 0 010-6.97L47.071 20.04zm26.37 1.913H52.109c-.828 0-1.622.329-2.209.915L20.115 52.652a.929.929 0 000 1.312L41.43 75.28a.929.929 0 001.313 0l29.784-29.784c.586-.586.915-1.38.915-2.209V21.953zm-4.13 4.131c-3.318-3.317-8.705-3.317-12.022 0s-3.317 8.704 0 12.021 8.704 3.317 12.021 0 3.317-8.704 0-12.02zm-2.83 2.829a4.502 4.502 0 010 6.364 4.502 4.502 0 01-6.363 0 4.502 4.502 0 010-6.364 4.502 4.502 0 016.364 0z" fill="#6a737d"/></svg>