<svg viewBox="0 0 100 100" fill-rule="evenodd" clip-rule="evenodd" stroke-linecap="round" stroke-linejoin="round" stroke-miterlimit="3" class="icon"><path d="M73 20a2.975 2.975 0 013.71 1.986c1.483 4.9 5.73 13.528 7.163 18.263a6.594 6.594 0 01-.498 5.022l-18.4 34.367a4.56 4.56 0 01-6.174 1.868C55.55 79.766 51.246 77.541 46.5 75" fill="none" stroke="#6a737d" stroke-width="3.9982032000000003"/><path d="M47.071 20.04a7.125 7.125 0 015.038-2.087h22.118a3.213 3.213 0 013.215 3.214v22.119c0 1.889-.75 3.701-2.087 5.038L45.571 78.108a4.928 4.928 0 01-6.969 0L17.287 56.793a4.928 4.928 0 010-6.97L47.071 20.04zm26.37 1.913H52.109c-.828 0-1.622.329-2.209.915L20.115 52.652a.929.929 0 000 1.312L41.43 75.28a.929.929 0 001.313 0l29.784-29.784c.586-.586.915-1.38.915-2.209V21.953zm-4.13 4.131c-3.318-3.317-8.705-3.317-12.022 0s-3.317 8.704 0 12.021 8.704 3.317 12.021 0 3.317-8.704 0-12.02zm-2.83 2.829a4.502 4.502 0 010 6.364 4.502 4.502 0 01-6.363 0 4.502 4.502 0 010-6.364 4.502 4.502 0 016.364 0z" fill="#6a737d"/></svg>