<svg viewBox="0 0 100 100" xmlns="http://www.w3.org/2000/svg" fill-rule="evenodd" clip-rule="evenodd" stroke-linecap="round" stroke-linejoin="round" stroke-miterlimit="3" class="icon"><path d="M8.23 99.81a2 2 0 01-1.897-1.997V38.726a13.22 13.22 0 014.768-10.165L41.547 3.242a13.222 13.222 0 0116.906 0L88.9 28.561a13.22 13.22 0 014.768 10.165v59.087a2 2 0 01-2 2H8.333l-.103-.002zm81.437-3.996V38.726a9.222 9.222 0 00-3.325-7.09L55.896 6.318a9.222 9.222 0 00-11.792 0L13.658 31.636a9.222 9.222 0 00-3.325 7.09v57.088h14.334V61.278a11.666 11.666 0 0111.665-11.664h27.336a11.664 11.664 0 0111.665 11.664v34.536H80v-15.82a2 2 0 014 0v15.82h5.667zm-61-33.94v33.94h42.666v-33.94H28.667zm40.754-5.66a7.664 7.664 0 00-5.752-2.6H36.331a7.664 7.664 0 00-5.753 2.6h38.842z" fill="#6a737d"/><path d="M89 114h31" fill="none" stroke="#6a737d" stroke-width="4.02" transform="matrix(1 0 0 .99 -78 -77.22)"/></svg>