<svg viewBox="0 0 100 100" xmlns="http://www.w3.org/2000/svg" fill-rule="evenodd" clip-rule="evenodd" stroke-linecap="round" stroke-linejoin="round" stroke-miterlimit="3" class="icon"><path d="M8.23 99.81a2 2 0 01-1.897-1.997V38.726a13.22 13.22 0 014.768-10.165L41.547 3.242a13.222 13.222 0 0116.906 0L88.9 28.561a13.22 13.22 0 014.768 10.165v59.087a2 2 0 01-2 2H8.333l-.103-.002zm81.437-3.996V38.726a9.222 9.222 0 00-3.325-7.09L55.896 6.318a9.222 9.222 0 00-11.792 0L13.658 31.636a9.222 9.222 0 00-3.325 7.09v57.088H44v-15.82a2 2 0 014 0v15.82h41.667z" fill="#6a737d"/><path d="M89 114h31" fill="none" stroke="#6a737d" stroke-width="5.66" transform="matrix(.70968 0 0 .70258 -52.161 -44.454)"/><path d="M33.443 63.632C27 53.732 27.33 40.56 35.145 31.236c6.82-8.138 17.523-11.174 27.366-8.75L44.35 44.159l6.899 11.15 12.184 4.843 18.162-21.67c4.109 9.267 2.99 20.336-3.83 28.473-7.815 9.324-20.727 11.952-31.6 7.34l-12.09 13.058a8.258 8.258 0 01-11.364.72l-.002-.002a8.316 8.316 0 01-.76-12.023l11.495-12.415zm21.149-37.924c-6.175.322-12.154 3.054-16.38 8.097-6.669 7.956-6.914 19.198-1.417 27.645l1.7 2.612-13.612 14.702a4.317 4.317 0 00.397 6.242 4.257 4.257 0 005.859-.371l14-15.12 2.587 1.096c9.278 3.936 20.304 1.73 26.972-6.226 4.226-5.043 5.872-11.409 5.109-17.544L64.64 64.937l-16.098-6.4-9.117-14.732 15.167-18.097z" fill="#6a737d"/></svg>