<svg viewBox="0 0 100 100" xmlns="http://www.w3.org/2000/svg" fill-rule="evenodd" clip-rule="evenodd" stroke-linejoin="round" stroke-miterlimit="2" class="icon"><path d="M27.872 58.332c-8.61-13.23-8.168-30.835 2.275-43.296C39.262 4.161 53.565.102 66.721 3.344L42.447 32.306l9.22 14.901 16.284 6.473 24.273-28.962c5.491 12.386 3.995 27.179-5.12 38.054-10.443 12.461-27.7 15.973-42.23 9.809l-17.58 18.987a8.838 8.838 0 01-12.163.77l-3.436-2.88a8.84 8.84 0 01-.81-12.781l16.987-18.345zm31.167-52.05c-9.642-.36-19.253 3.48-25.826 11.323-9.297 11.093-9.653 26.767-1.989 38.545l1.7 2.613L13.82 79.394a4.84 4.84 0 00.443 6.998l3.436 2.88a4.84 4.84 0 006.66-.422l19.488-21.049 2.588 1.098c12.936 5.487 28.306 2.397 37.603-8.696 6.574-7.843 8.675-17.978 6.634-27.408L69.16 58.465 48.96 50.437 37.524 31.953 59.04 6.283z" fill="#6a737d"/></svg>